%TF.GenerationSoftware,KiCad,Pcbnew,5.1.8-db9833491~87~ubuntu20.04.1*%
%TF.CreationDate,2020-11-28T16:20:25-05:00*%
%TF.ProjectId,DevBoard,44657642-6f61-4726-942e-6b696361645f,V01*%
%TF.SameCoordinates,Original*%
%TF.FileFunction,Soldermask,Top*%
%TF.FilePolarity,Negative*%
%FSLAX46Y46*%
G04 Gerber Fmt 4.6, Leading zero omitted, Abs format (unit mm)*
G04 Created by KiCad (PCBNEW 5.1.8-db9833491~87~ubuntu20.04.1) date 2020-11-28 16:20:25*
%MOMM*%
%LPD*%
G01*
G04 APERTURE LIST*
%ADD10R,1.600000X1.600000*%
%ADD11C,1.600000*%
%ADD12R,1.800000X1.800000*%
%ADD13C,1.800000*%
%ADD14R,1.200000X0.600000*%
%ADD15R,1.700000X1.700000*%
%ADD16O,1.700000X1.700000*%
%ADD17R,0.240000X0.300000*%
%ADD18R,1.900000X1.000000*%
%ADD19O,1.900000X1.100000*%
%ADD20R,1.900000X1.500000*%
%ADD21C,1.450000*%
%ADD22R,1.350000X0.400000*%
%ADD23C,1.524000*%
%ADD24O,1.500000X2.700000*%
%ADD25O,2.700000X1.500000*%
%ADD26C,4.000000*%
%ADD27C,3.000000*%
%ADD28O,1.600000X1.600000*%
%ADD29C,2.200000*%
%ADD30C,1.700000*%
%ADD31R,2.200000X1.500000*%
%ADD32R,2.200000X3.800000*%
%ADD33C,2.500000*%
G04 APERTURE END LIST*
%TO.C,C1*%
G36*
G01*
X61485000Y-72715000D02*
X61985000Y-72715000D01*
G75*
G02*
X62210000Y-72940000I0J-225000D01*
G01*
X62210000Y-73390000D01*
G75*
G02*
X61985000Y-73615000I-225000J0D01*
G01*
X61485000Y-73615000D01*
G75*
G02*
X61260000Y-73390000I0J225000D01*
G01*
X61260000Y-72940000D01*
G75*
G02*
X61485000Y-72715000I225000J0D01*
G01*
G37*
G36*
G01*
X61485000Y-71165000D02*
X61985000Y-71165000D01*
G75*
G02*
X62210000Y-71390000I0J-225000D01*
G01*
X62210000Y-71840000D01*
G75*
G02*
X61985000Y-72065000I-225000J0D01*
G01*
X61485000Y-72065000D01*
G75*
G02*
X61260000Y-71840000I0J225000D01*
G01*
X61260000Y-71390000D01*
G75*
G02*
X61485000Y-71165000I225000J0D01*
G01*
G37*
%TD*%
%TO.C,C2*%
G36*
G01*
X79760000Y-68905000D02*
X80260000Y-68905000D01*
G75*
G02*
X80485000Y-69130000I0J-225000D01*
G01*
X80485000Y-69580000D01*
G75*
G02*
X80260000Y-69805000I-225000J0D01*
G01*
X79760000Y-69805000D01*
G75*
G02*
X79535000Y-69580000I0J225000D01*
G01*
X79535000Y-69130000D01*
G75*
G02*
X79760000Y-68905000I225000J0D01*
G01*
G37*
G36*
G01*
X79760000Y-67355000D02*
X80260000Y-67355000D01*
G75*
G02*
X80485000Y-67580000I0J-225000D01*
G01*
X80485000Y-68030000D01*
G75*
G02*
X80260000Y-68255000I-225000J0D01*
G01*
X79760000Y-68255000D01*
G75*
G02*
X79535000Y-68030000I0J225000D01*
G01*
X79535000Y-67580000D01*
G75*
G02*
X79760000Y-67355000I225000J0D01*
G01*
G37*
%TD*%
%TO.C,C3*%
G36*
G01*
X67480000Y-81030000D02*
X67480000Y-81530000D01*
G75*
G02*
X67255000Y-81755000I-225000J0D01*
G01*
X66805000Y-81755000D01*
G75*
G02*
X66580000Y-81530000I0J225000D01*
G01*
X66580000Y-81030000D01*
G75*
G02*
X66805000Y-80805000I225000J0D01*
G01*
X67255000Y-80805000D01*
G75*
G02*
X67480000Y-81030000I0J-225000D01*
G01*
G37*
G36*
G01*
X69030000Y-81030000D02*
X69030000Y-81530000D01*
G75*
G02*
X68805000Y-81755000I-225000J0D01*
G01*
X68355000Y-81755000D01*
G75*
G02*
X68130000Y-81530000I0J225000D01*
G01*
X68130000Y-81030000D01*
G75*
G02*
X68355000Y-80805000I225000J0D01*
G01*
X68805000Y-80805000D01*
G75*
G02*
X69030000Y-81030000I0J-225000D01*
G01*
G37*
%TD*%
%TO.C,C4*%
G36*
G01*
X65590000Y-63750000D02*
X65590000Y-63250000D01*
G75*
G02*
X65815000Y-63025000I225000J0D01*
G01*
X66265000Y-63025000D01*
G75*
G02*
X66490000Y-63250000I0J-225000D01*
G01*
X66490000Y-63750000D01*
G75*
G02*
X66265000Y-63975000I-225000J0D01*
G01*
X65815000Y-63975000D01*
G75*
G02*
X65590000Y-63750000I0J225000D01*
G01*
G37*
G36*
G01*
X67140000Y-63750000D02*
X67140000Y-63250000D01*
G75*
G02*
X67365000Y-63025000I225000J0D01*
G01*
X67815000Y-63025000D01*
G75*
G02*
X68040000Y-63250000I0J-225000D01*
G01*
X68040000Y-63750000D01*
G75*
G02*
X67815000Y-63975000I-225000J0D01*
G01*
X67365000Y-63975000D01*
G75*
G02*
X67140000Y-63750000I0J225000D01*
G01*
G37*
%TD*%
%TO.C,C5*%
G36*
G01*
X45470000Y-73705000D02*
X45970000Y-73705000D01*
G75*
G02*
X46195000Y-73930000I0J-225000D01*
G01*
X46195000Y-74380000D01*
G75*
G02*
X45970000Y-74605000I-225000J0D01*
G01*
X45470000Y-74605000D01*
G75*
G02*
X45245000Y-74380000I0J225000D01*
G01*
X45245000Y-73930000D01*
G75*
G02*
X45470000Y-73705000I225000J0D01*
G01*
G37*
G36*
G01*
X45470000Y-75255000D02*
X45970000Y-75255000D01*
G75*
G02*
X46195000Y-75480000I0J-225000D01*
G01*
X46195000Y-75930000D01*
G75*
G02*
X45970000Y-76155000I-225000J0D01*
G01*
X45470000Y-76155000D01*
G75*
G02*
X45245000Y-75930000I0J225000D01*
G01*
X45245000Y-75480000D01*
G75*
G02*
X45470000Y-75255000I225000J0D01*
G01*
G37*
%TD*%
%TO.C,C6*%
G36*
G01*
X42160000Y-79190000D02*
X41660000Y-79190000D01*
G75*
G02*
X41435000Y-78965000I0J225000D01*
G01*
X41435000Y-78515000D01*
G75*
G02*
X41660000Y-78290000I225000J0D01*
G01*
X42160000Y-78290000D01*
G75*
G02*
X42385000Y-78515000I0J-225000D01*
G01*
X42385000Y-78965000D01*
G75*
G02*
X42160000Y-79190000I-225000J0D01*
G01*
G37*
G36*
G01*
X42160000Y-80740000D02*
X41660000Y-80740000D01*
G75*
G02*
X41435000Y-80515000I0J225000D01*
G01*
X41435000Y-80065000D01*
G75*
G02*
X41660000Y-79840000I225000J0D01*
G01*
X42160000Y-79840000D01*
G75*
G02*
X42385000Y-80065000I0J-225000D01*
G01*
X42385000Y-80515000D01*
G75*
G02*
X42160000Y-80740000I-225000J0D01*
G01*
G37*
%TD*%
%TO.C,C7*%
G36*
G01*
X76930000Y-81030000D02*
X76930000Y-81530000D01*
G75*
G02*
X76705000Y-81755000I-225000J0D01*
G01*
X76255000Y-81755000D01*
G75*
G02*
X76030000Y-81530000I0J225000D01*
G01*
X76030000Y-81030000D01*
G75*
G02*
X76255000Y-80805000I225000J0D01*
G01*
X76705000Y-80805000D01*
G75*
G02*
X76930000Y-81030000I0J-225000D01*
G01*
G37*
G36*
G01*
X75380000Y-81030000D02*
X75380000Y-81530000D01*
G75*
G02*
X75155000Y-81755000I-225000J0D01*
G01*
X74705000Y-81755000D01*
G75*
G02*
X74480000Y-81530000I0J225000D01*
G01*
X74480000Y-81030000D01*
G75*
G02*
X74705000Y-80805000I225000J0D01*
G01*
X75155000Y-80805000D01*
G75*
G02*
X75380000Y-81030000I0J-225000D01*
G01*
G37*
%TD*%
%TO.C,C8*%
G36*
G01*
X61980000Y-64815000D02*
X62480000Y-64815000D01*
G75*
G02*
X62705000Y-65040000I0J-225000D01*
G01*
X62705000Y-65490000D01*
G75*
G02*
X62480000Y-65715000I-225000J0D01*
G01*
X61980000Y-65715000D01*
G75*
G02*
X61755000Y-65490000I0J225000D01*
G01*
X61755000Y-65040000D01*
G75*
G02*
X61980000Y-64815000I225000J0D01*
G01*
G37*
G36*
G01*
X61980000Y-66365000D02*
X62480000Y-66365000D01*
G75*
G02*
X62705000Y-66590000I0J-225000D01*
G01*
X62705000Y-67040000D01*
G75*
G02*
X62480000Y-67265000I-225000J0D01*
G01*
X61980000Y-67265000D01*
G75*
G02*
X61755000Y-67040000I0J225000D01*
G01*
X61755000Y-66590000D01*
G75*
G02*
X61980000Y-66365000I225000J0D01*
G01*
G37*
%TD*%
%TO.C,C9*%
G36*
G01*
X45970000Y-79190000D02*
X45470000Y-79190000D01*
G75*
G02*
X45245000Y-78965000I0J225000D01*
G01*
X45245000Y-78515000D01*
G75*
G02*
X45470000Y-78290000I225000J0D01*
G01*
X45970000Y-78290000D01*
G75*
G02*
X46195000Y-78515000I0J-225000D01*
G01*
X46195000Y-78965000D01*
G75*
G02*
X45970000Y-79190000I-225000J0D01*
G01*
G37*
G36*
G01*
X45970000Y-80740000D02*
X45470000Y-80740000D01*
G75*
G02*
X45245000Y-80515000I0J225000D01*
G01*
X45245000Y-80065000D01*
G75*
G02*
X45470000Y-79840000I225000J0D01*
G01*
X45970000Y-79840000D01*
G75*
G02*
X46195000Y-80065000I0J-225000D01*
G01*
X46195000Y-80515000D01*
G75*
G02*
X45970000Y-80740000I-225000J0D01*
G01*
G37*
%TD*%
%TO.C,C10*%
G36*
G01*
X41660000Y-73705000D02*
X42160000Y-73705000D01*
G75*
G02*
X42385000Y-73930000I0J-225000D01*
G01*
X42385000Y-74380000D01*
G75*
G02*
X42160000Y-74605000I-225000J0D01*
G01*
X41660000Y-74605000D01*
G75*
G02*
X41435000Y-74380000I0J225000D01*
G01*
X41435000Y-73930000D01*
G75*
G02*
X41660000Y-73705000I225000J0D01*
G01*
G37*
G36*
G01*
X41660000Y-75255000D02*
X42160000Y-75255000D01*
G75*
G02*
X42385000Y-75480000I0J-225000D01*
G01*
X42385000Y-75930000D01*
G75*
G02*
X42160000Y-76155000I-225000J0D01*
G01*
X41660000Y-76155000D01*
G75*
G02*
X41435000Y-75930000I0J225000D01*
G01*
X41435000Y-75480000D01*
G75*
G02*
X41660000Y-75255000I225000J0D01*
G01*
G37*
%TD*%
D10*
%TO.C,C11*%
X113030000Y-153670000D03*
D11*
X113030000Y-150170000D03*
%TD*%
%TO.C,C12*%
X63500000Y-152710000D03*
D10*
X63500000Y-156210000D03*
%TD*%
D12*
%TO.C,D1*%
X20320000Y-54610000D03*
D13*
X17780000Y-54610000D03*
%TD*%
D14*
%TO.C,D2*%
X32780000Y-77150000D03*
X32780000Y-76200000D03*
X32780000Y-75250000D03*
X30480000Y-75250000D03*
X30480000Y-76200000D03*
X30480000Y-77150000D03*
%TD*%
%TO.C,FB1*%
G36*
G01*
X49273750Y-74975000D02*
X49786250Y-74975000D01*
G75*
G02*
X50005000Y-75193750I0J-218750D01*
G01*
X50005000Y-75631250D01*
G75*
G02*
X49786250Y-75850000I-218750J0D01*
G01*
X49273750Y-75850000D01*
G75*
G02*
X49055000Y-75631250I0J218750D01*
G01*
X49055000Y-75193750D01*
G75*
G02*
X49273750Y-74975000I218750J0D01*
G01*
G37*
G36*
G01*
X49273750Y-76550000D02*
X49786250Y-76550000D01*
G75*
G02*
X50005000Y-76768750I0J-218750D01*
G01*
X50005000Y-77206250D01*
G75*
G02*
X49786250Y-77425000I-218750J0D01*
G01*
X49273750Y-77425000D01*
G75*
G02*
X49055000Y-77206250I0J218750D01*
G01*
X49055000Y-76768750D01*
G75*
G02*
X49273750Y-76550000I218750J0D01*
G01*
G37*
%TD*%
D15*
%TO.C,J1*%
X99060000Y-62230000D03*
D16*
X101600000Y-62230000D03*
X104140000Y-62230000D03*
X106680000Y-62230000D03*
X109220000Y-62230000D03*
X111760000Y-62230000D03*
%TD*%
D17*
%TO.C,J2*%
X15910000Y-75720000D03*
X14250000Y-75720000D03*
X14250000Y-69060000D03*
D18*
X15080000Y-75140000D03*
X15080000Y-69640000D03*
D19*
X15080000Y-68890000D03*
D20*
X15080000Y-73390000D03*
D21*
X17780000Y-74890000D03*
X17780000Y-69890000D03*
D22*
X17780000Y-71090000D03*
X17780000Y-71740000D03*
X17780000Y-72390000D03*
X17780000Y-73040000D03*
X17780000Y-73690000D03*
D20*
X15080000Y-71390000D03*
D19*
X15080000Y-75890000D03*
D17*
X15910000Y-69060000D03*
%TD*%
D15*
%TO.C,J3*%
X71120000Y-50800000D03*
D16*
X71120000Y-53340000D03*
X68580000Y-50800000D03*
X68580000Y-53340000D03*
X66040000Y-50800000D03*
X66040000Y-53340000D03*
X63500000Y-50800000D03*
X63500000Y-53340000D03*
%TD*%
D23*
%TO.C,J4*%
X140970000Y-156210000D03*
X135890000Y-153670000D03*
X133350000Y-156210000D03*
X146050000Y-153670000D03*
X148590000Y-156210000D03*
X133350000Y-166370000D03*
X148590000Y-166370000D03*
%TD*%
%TO.C,J5*%
X205740000Y-166370000D03*
X190500000Y-166370000D03*
X205740000Y-156210000D03*
X203200000Y-153670000D03*
X190500000Y-156210000D03*
X193040000Y-153670000D03*
X198120000Y-156210000D03*
%TD*%
%TO.C,J6*%
X180340000Y-154940000D03*
X180340000Y-157480000D03*
X177800000Y-157480000D03*
X172720000Y-157480000D03*
X172720000Y-155194000D03*
X175260000Y-157480000D03*
D24*
X183655000Y-160508000D03*
X169405000Y-160508000D03*
D25*
X176530000Y-161508000D03*
%TD*%
D15*
%TO.C,J7*%
X205740000Y-64770000D03*
D16*
X205740000Y-67310000D03*
X205740000Y-69850000D03*
X205740000Y-72390000D03*
X205740000Y-74930000D03*
X205740000Y-77470000D03*
X205740000Y-80010000D03*
X205740000Y-82550000D03*
%TD*%
%TO.C,J8*%
X190500000Y-82550000D03*
X190500000Y-80010000D03*
X190500000Y-77470000D03*
X190500000Y-74930000D03*
X190500000Y-72390000D03*
X190500000Y-69850000D03*
X190500000Y-67310000D03*
D15*
X190500000Y-64770000D03*
%TD*%
%TO.C,J9*%
X165100000Y-64770000D03*
D16*
X165100000Y-67310000D03*
X165100000Y-69850000D03*
X165100000Y-72390000D03*
X165100000Y-74930000D03*
X165100000Y-77470000D03*
X165100000Y-80010000D03*
X165100000Y-82550000D03*
%TD*%
D10*
%TO.C,J10*%
X35560000Y-147320000D03*
D11*
X35560000Y-144550000D03*
X35560000Y-141780000D03*
X35560000Y-139010000D03*
X35560000Y-136240000D03*
X35560000Y-133470000D03*
X35560000Y-130700000D03*
X35560000Y-127930000D03*
X35560000Y-125160000D03*
X35560000Y-122390000D03*
X35560000Y-119620000D03*
X35560000Y-116850000D03*
X35560000Y-114080000D03*
X32720000Y-145935000D03*
X32720000Y-143165000D03*
X32720000Y-140395000D03*
X32720000Y-137625000D03*
X32720000Y-134855000D03*
X32720000Y-132085000D03*
X32720000Y-129315000D03*
X32720000Y-126545000D03*
X32720000Y-123775000D03*
X32720000Y-121005000D03*
X32720000Y-118235000D03*
X32720000Y-115465000D03*
D26*
X34140000Y-107150000D03*
X34140000Y-154250000D03*
%TD*%
D16*
%TO.C,J11*%
X81280000Y-149860000D03*
D15*
X83820000Y-149860000D03*
%TD*%
D23*
%TO.C,J12*%
X93980000Y-161290000D03*
X91440000Y-161290000D03*
X86360000Y-161290000D03*
X83820000Y-161290000D03*
X88900000Y-166370000D03*
%TD*%
D27*
%TO.C,J13*%
X55150001Y-20045001D03*
X57350001Y-27970001D03*
X57350001Y-35220001D03*
X52950001Y-35220001D03*
%TD*%
D16*
%TO.C,J14*%
X53340000Y-15875000D03*
D15*
X55880000Y-15875000D03*
%TD*%
D27*
%TO.C,J15*%
X211550001Y-20825001D03*
X213750001Y-28750001D03*
X213750001Y-36000001D03*
X209350001Y-36000001D03*
%TD*%
D15*
%TO.C,J16*%
X213360000Y-15875000D03*
D16*
X210820000Y-15875000D03*
%TD*%
D27*
%TO.C,J17*%
X190820001Y-35910001D03*
X195220001Y-35910001D03*
X195220001Y-28660001D03*
X193020001Y-20735001D03*
%TD*%
D15*
%TO.C,J18*%
X194310000Y-15875000D03*
D16*
X191770000Y-15875000D03*
%TD*%
D27*
%TO.C,J19*%
X33500001Y-35220001D03*
X37900001Y-35220001D03*
X37900001Y-27970001D03*
X35700001Y-20045001D03*
%TD*%
D15*
%TO.C,J20*%
X36830000Y-15875000D03*
D16*
X34290000Y-15875000D03*
%TD*%
D27*
%TO.C,J21*%
X151470000Y-34860000D03*
X155870000Y-34860000D03*
X155870000Y-27610000D03*
X153670000Y-19685000D03*
%TD*%
D15*
%TO.C,J22*%
X153670000Y-14605000D03*
D16*
X151130000Y-14605000D03*
%TD*%
D27*
%TO.C,J23*%
X173100001Y-19465001D03*
X175300001Y-27390001D03*
X175300001Y-34640001D03*
X170900001Y-34640001D03*
%TD*%
D15*
%TO.C,J24*%
X173990000Y-14605000D03*
D16*
X171450000Y-14605000D03*
%TD*%
D27*
%TO.C,J25*%
X91640001Y-35550001D03*
X96040001Y-35550001D03*
X96040001Y-28300001D03*
X93840001Y-20375001D03*
%TD*%
D15*
%TO.C,J26*%
X95250000Y-15875000D03*
D16*
X92710000Y-15875000D03*
%TD*%
D27*
%TO.C,J27*%
X74600001Y-20045001D03*
X76800001Y-27970001D03*
X76800001Y-35220001D03*
X72400001Y-35220001D03*
%TD*%
D16*
%TO.C,J28*%
X72390000Y-15875000D03*
D15*
X74930000Y-15875000D03*
%TD*%
D27*
%TO.C,J29*%
X132800001Y-34970001D03*
X137200001Y-34970001D03*
X137200001Y-27720001D03*
X135000001Y-19795001D03*
%TD*%
D16*
%TO.C,J30*%
X133350000Y-14910001D03*
D15*
X135890000Y-14910001D03*
%TD*%
D27*
%TO.C,J31*%
X113810001Y-19885001D03*
X116010001Y-27810001D03*
X116010001Y-35060001D03*
X111610001Y-35060001D03*
%TD*%
D16*
%TO.C,J32*%
X113030000Y-15875000D03*
D15*
X115570000Y-15875000D03*
%TD*%
D11*
%TO.C,R1*%
X48260000Y-92710000D03*
D28*
X55880000Y-92710000D03*
%TD*%
%TO.C,R2*%
X34290000Y-55880000D03*
D11*
X26670000Y-55880000D03*
%TD*%
%TO.C,R3*%
X15240000Y-62230000D03*
D28*
X22860000Y-62230000D03*
%TD*%
D11*
%TO.C,R4*%
X130810000Y-147320000D03*
D28*
X138430000Y-147320000D03*
%TD*%
D11*
%TO.C,R5*%
X149860000Y-147320000D03*
D28*
X157480000Y-147320000D03*
%TD*%
%TO.C,R6*%
X186690000Y-140970000D03*
D11*
X194310000Y-140970000D03*
%TD*%
%TO.C,R7*%
X173990000Y-140970000D03*
D28*
X166370000Y-140970000D03*
%TD*%
%TO.C,R8*%
X103015001Y-139304999D03*
D11*
X103015001Y-146924999D03*
%TD*%
D28*
%TO.C,R9*%
X74930000Y-138430000D03*
D11*
X74930000Y-146050000D03*
%TD*%
%TO.C,R10*%
X103015001Y-157694999D03*
D28*
X103015001Y-150074999D03*
%TD*%
D11*
%TO.C,R11*%
X74930000Y-160020000D03*
D28*
X74930000Y-152400000D03*
%TD*%
%TO.C,R12*%
X46990000Y-26035000D03*
D11*
X46990000Y-18415000D03*
%TD*%
%TO.C,R13*%
X203200000Y-18415000D03*
D28*
X203200000Y-26035000D03*
%TD*%
%TO.C,R14*%
X184150000Y-26035000D03*
D11*
X184150000Y-18415000D03*
%TD*%
%TO.C,R15*%
X25400000Y-19685000D03*
D28*
X25400000Y-27305000D03*
%TD*%
%TO.C,R16*%
X146050000Y-26035000D03*
D11*
X146050000Y-18415000D03*
%TD*%
%TO.C,R17*%
X165100000Y-18415000D03*
D28*
X165100000Y-26035000D03*
%TD*%
%TO.C,R18*%
X85090000Y-19685000D03*
D11*
X85090000Y-27305000D03*
%TD*%
%TO.C,R19*%
X66040000Y-19685000D03*
D28*
X66040000Y-27305000D03*
%TD*%
%TO.C,R20*%
X125730000Y-26035000D03*
D11*
X125730000Y-18415000D03*
%TD*%
D28*
%TO.C,R21*%
X105410000Y-27305000D03*
D11*
X105410000Y-19685000D03*
%TD*%
D29*
%TO.C,SW1*%
X29210000Y-86360000D03*
X22860000Y-88900000D03*
D26*
X26670000Y-91440000D03*
D30*
X21590000Y-91440000D03*
X31750000Y-91440000D03*
%TD*%
%TO.C,U1*%
G36*
G01*
X64670000Y-68715000D02*
X64670000Y-68565000D01*
G75*
G02*
X64745000Y-68490000I75000J0D01*
G01*
X66145000Y-68490000D01*
G75*
G02*
X66220000Y-68565000I0J-75000D01*
G01*
X66220000Y-68715000D01*
G75*
G02*
X66145000Y-68790000I-75000J0D01*
G01*
X64745000Y-68790000D01*
G75*
G02*
X64670000Y-68715000I0J75000D01*
G01*
G37*
G36*
G01*
X64670000Y-69215000D02*
X64670000Y-69065000D01*
G75*
G02*
X64745000Y-68990000I75000J0D01*
G01*
X66145000Y-68990000D01*
G75*
G02*
X66220000Y-69065000I0J-75000D01*
G01*
X66220000Y-69215000D01*
G75*
G02*
X66145000Y-69290000I-75000J0D01*
G01*
X64745000Y-69290000D01*
G75*
G02*
X64670000Y-69215000I0J75000D01*
G01*
G37*
G36*
G01*
X64670000Y-69715000D02*
X64670000Y-69565000D01*
G75*
G02*
X64745000Y-69490000I75000J0D01*
G01*
X66145000Y-69490000D01*
G75*
G02*
X66220000Y-69565000I0J-75000D01*
G01*
X66220000Y-69715000D01*
G75*
G02*
X66145000Y-69790000I-75000J0D01*
G01*
X64745000Y-69790000D01*
G75*
G02*
X64670000Y-69715000I0J75000D01*
G01*
G37*
G36*
G01*
X64670000Y-70215000D02*
X64670000Y-70065000D01*
G75*
G02*
X64745000Y-69990000I75000J0D01*
G01*
X66145000Y-69990000D01*
G75*
G02*
X66220000Y-70065000I0J-75000D01*
G01*
X66220000Y-70215000D01*
G75*
G02*
X66145000Y-70290000I-75000J0D01*
G01*
X64745000Y-70290000D01*
G75*
G02*
X64670000Y-70215000I0J75000D01*
G01*
G37*
G36*
G01*
X64670000Y-70715000D02*
X64670000Y-70565000D01*
G75*
G02*
X64745000Y-70490000I75000J0D01*
G01*
X66145000Y-70490000D01*
G75*
G02*
X66220000Y-70565000I0J-75000D01*
G01*
X66220000Y-70715000D01*
G75*
G02*
X66145000Y-70790000I-75000J0D01*
G01*
X64745000Y-70790000D01*
G75*
G02*
X64670000Y-70715000I0J75000D01*
G01*
G37*
G36*
G01*
X64670000Y-71215000D02*
X64670000Y-71065000D01*
G75*
G02*
X64745000Y-70990000I75000J0D01*
G01*
X66145000Y-70990000D01*
G75*
G02*
X66220000Y-71065000I0J-75000D01*
G01*
X66220000Y-71215000D01*
G75*
G02*
X66145000Y-71290000I-75000J0D01*
G01*
X64745000Y-71290000D01*
G75*
G02*
X64670000Y-71215000I0J75000D01*
G01*
G37*
G36*
G01*
X64670000Y-71715000D02*
X64670000Y-71565000D01*
G75*
G02*
X64745000Y-71490000I75000J0D01*
G01*
X66145000Y-71490000D01*
G75*
G02*
X66220000Y-71565000I0J-75000D01*
G01*
X66220000Y-71715000D01*
G75*
G02*
X66145000Y-71790000I-75000J0D01*
G01*
X64745000Y-71790000D01*
G75*
G02*
X64670000Y-71715000I0J75000D01*
G01*
G37*
G36*
G01*
X64670000Y-72215000D02*
X64670000Y-72065000D01*
G75*
G02*
X64745000Y-71990000I75000J0D01*
G01*
X66145000Y-71990000D01*
G75*
G02*
X66220000Y-72065000I0J-75000D01*
G01*
X66220000Y-72215000D01*
G75*
G02*
X66145000Y-72290000I-75000J0D01*
G01*
X64745000Y-72290000D01*
G75*
G02*
X64670000Y-72215000I0J75000D01*
G01*
G37*
G36*
G01*
X64670000Y-72715000D02*
X64670000Y-72565000D01*
G75*
G02*
X64745000Y-72490000I75000J0D01*
G01*
X66145000Y-72490000D01*
G75*
G02*
X66220000Y-72565000I0J-75000D01*
G01*
X66220000Y-72715000D01*
G75*
G02*
X66145000Y-72790000I-75000J0D01*
G01*
X64745000Y-72790000D01*
G75*
G02*
X64670000Y-72715000I0J75000D01*
G01*
G37*
G36*
G01*
X64670000Y-73215000D02*
X64670000Y-73065000D01*
G75*
G02*
X64745000Y-72990000I75000J0D01*
G01*
X66145000Y-72990000D01*
G75*
G02*
X66220000Y-73065000I0J-75000D01*
G01*
X66220000Y-73215000D01*
G75*
G02*
X66145000Y-73290000I-75000J0D01*
G01*
X64745000Y-73290000D01*
G75*
G02*
X64670000Y-73215000I0J75000D01*
G01*
G37*
G36*
G01*
X64670000Y-73715000D02*
X64670000Y-73565000D01*
G75*
G02*
X64745000Y-73490000I75000J0D01*
G01*
X66145000Y-73490000D01*
G75*
G02*
X66220000Y-73565000I0J-75000D01*
G01*
X66220000Y-73715000D01*
G75*
G02*
X66145000Y-73790000I-75000J0D01*
G01*
X64745000Y-73790000D01*
G75*
G02*
X64670000Y-73715000I0J75000D01*
G01*
G37*
G36*
G01*
X64670000Y-74215000D02*
X64670000Y-74065000D01*
G75*
G02*
X64745000Y-73990000I75000J0D01*
G01*
X66145000Y-73990000D01*
G75*
G02*
X66220000Y-74065000I0J-75000D01*
G01*
X66220000Y-74215000D01*
G75*
G02*
X66145000Y-74290000I-75000J0D01*
G01*
X64745000Y-74290000D01*
G75*
G02*
X64670000Y-74215000I0J75000D01*
G01*
G37*
G36*
G01*
X64670000Y-74715000D02*
X64670000Y-74565000D01*
G75*
G02*
X64745000Y-74490000I75000J0D01*
G01*
X66145000Y-74490000D01*
G75*
G02*
X66220000Y-74565000I0J-75000D01*
G01*
X66220000Y-74715000D01*
G75*
G02*
X66145000Y-74790000I-75000J0D01*
G01*
X64745000Y-74790000D01*
G75*
G02*
X64670000Y-74715000I0J75000D01*
G01*
G37*
G36*
G01*
X64670000Y-75215000D02*
X64670000Y-75065000D01*
G75*
G02*
X64745000Y-74990000I75000J0D01*
G01*
X66145000Y-74990000D01*
G75*
G02*
X66220000Y-75065000I0J-75000D01*
G01*
X66220000Y-75215000D01*
G75*
G02*
X66145000Y-75290000I-75000J0D01*
G01*
X64745000Y-75290000D01*
G75*
G02*
X64670000Y-75215000I0J75000D01*
G01*
G37*
G36*
G01*
X64670000Y-75715000D02*
X64670000Y-75565000D01*
G75*
G02*
X64745000Y-75490000I75000J0D01*
G01*
X66145000Y-75490000D01*
G75*
G02*
X66220000Y-75565000I0J-75000D01*
G01*
X66220000Y-75715000D01*
G75*
G02*
X66145000Y-75790000I-75000J0D01*
G01*
X64745000Y-75790000D01*
G75*
G02*
X64670000Y-75715000I0J75000D01*
G01*
G37*
G36*
G01*
X64670000Y-76215000D02*
X64670000Y-76065000D01*
G75*
G02*
X64745000Y-75990000I75000J0D01*
G01*
X66145000Y-75990000D01*
G75*
G02*
X66220000Y-76065000I0J-75000D01*
G01*
X66220000Y-76215000D01*
G75*
G02*
X66145000Y-76290000I-75000J0D01*
G01*
X64745000Y-76290000D01*
G75*
G02*
X64670000Y-76215000I0J75000D01*
G01*
G37*
G36*
G01*
X67220000Y-78765000D02*
X67220000Y-77365000D01*
G75*
G02*
X67295000Y-77290000I75000J0D01*
G01*
X67445000Y-77290000D01*
G75*
G02*
X67520000Y-77365000I0J-75000D01*
G01*
X67520000Y-78765000D01*
G75*
G02*
X67445000Y-78840000I-75000J0D01*
G01*
X67295000Y-78840000D01*
G75*
G02*
X67220000Y-78765000I0J75000D01*
G01*
G37*
G36*
G01*
X67720000Y-78765000D02*
X67720000Y-77365000D01*
G75*
G02*
X67795000Y-77290000I75000J0D01*
G01*
X67945000Y-77290000D01*
G75*
G02*
X68020000Y-77365000I0J-75000D01*
G01*
X68020000Y-78765000D01*
G75*
G02*
X67945000Y-78840000I-75000J0D01*
G01*
X67795000Y-78840000D01*
G75*
G02*
X67720000Y-78765000I0J75000D01*
G01*
G37*
G36*
G01*
X68220000Y-78765000D02*
X68220000Y-77365000D01*
G75*
G02*
X68295000Y-77290000I75000J0D01*
G01*
X68445000Y-77290000D01*
G75*
G02*
X68520000Y-77365000I0J-75000D01*
G01*
X68520000Y-78765000D01*
G75*
G02*
X68445000Y-78840000I-75000J0D01*
G01*
X68295000Y-78840000D01*
G75*
G02*
X68220000Y-78765000I0J75000D01*
G01*
G37*
G36*
G01*
X68720000Y-78765000D02*
X68720000Y-77365000D01*
G75*
G02*
X68795000Y-77290000I75000J0D01*
G01*
X68945000Y-77290000D01*
G75*
G02*
X69020000Y-77365000I0J-75000D01*
G01*
X69020000Y-78765000D01*
G75*
G02*
X68945000Y-78840000I-75000J0D01*
G01*
X68795000Y-78840000D01*
G75*
G02*
X68720000Y-78765000I0J75000D01*
G01*
G37*
G36*
G01*
X69220000Y-78765000D02*
X69220000Y-77365000D01*
G75*
G02*
X69295000Y-77290000I75000J0D01*
G01*
X69445000Y-77290000D01*
G75*
G02*
X69520000Y-77365000I0J-75000D01*
G01*
X69520000Y-78765000D01*
G75*
G02*
X69445000Y-78840000I-75000J0D01*
G01*
X69295000Y-78840000D01*
G75*
G02*
X69220000Y-78765000I0J75000D01*
G01*
G37*
G36*
G01*
X69720000Y-78765000D02*
X69720000Y-77365000D01*
G75*
G02*
X69795000Y-77290000I75000J0D01*
G01*
X69945000Y-77290000D01*
G75*
G02*
X70020000Y-77365000I0J-75000D01*
G01*
X70020000Y-78765000D01*
G75*
G02*
X69945000Y-78840000I-75000J0D01*
G01*
X69795000Y-78840000D01*
G75*
G02*
X69720000Y-78765000I0J75000D01*
G01*
G37*
G36*
G01*
X70220000Y-78765000D02*
X70220000Y-77365000D01*
G75*
G02*
X70295000Y-77290000I75000J0D01*
G01*
X70445000Y-77290000D01*
G75*
G02*
X70520000Y-77365000I0J-75000D01*
G01*
X70520000Y-78765000D01*
G75*
G02*
X70445000Y-78840000I-75000J0D01*
G01*
X70295000Y-78840000D01*
G75*
G02*
X70220000Y-78765000I0J75000D01*
G01*
G37*
G36*
G01*
X70720000Y-78765000D02*
X70720000Y-77365000D01*
G75*
G02*
X70795000Y-77290000I75000J0D01*
G01*
X70945000Y-77290000D01*
G75*
G02*
X71020000Y-77365000I0J-75000D01*
G01*
X71020000Y-78765000D01*
G75*
G02*
X70945000Y-78840000I-75000J0D01*
G01*
X70795000Y-78840000D01*
G75*
G02*
X70720000Y-78765000I0J75000D01*
G01*
G37*
G36*
G01*
X71220000Y-78765000D02*
X71220000Y-77365000D01*
G75*
G02*
X71295000Y-77290000I75000J0D01*
G01*
X71445000Y-77290000D01*
G75*
G02*
X71520000Y-77365000I0J-75000D01*
G01*
X71520000Y-78765000D01*
G75*
G02*
X71445000Y-78840000I-75000J0D01*
G01*
X71295000Y-78840000D01*
G75*
G02*
X71220000Y-78765000I0J75000D01*
G01*
G37*
G36*
G01*
X71720000Y-78765000D02*
X71720000Y-77365000D01*
G75*
G02*
X71795000Y-77290000I75000J0D01*
G01*
X71945000Y-77290000D01*
G75*
G02*
X72020000Y-77365000I0J-75000D01*
G01*
X72020000Y-78765000D01*
G75*
G02*
X71945000Y-78840000I-75000J0D01*
G01*
X71795000Y-78840000D01*
G75*
G02*
X71720000Y-78765000I0J75000D01*
G01*
G37*
G36*
G01*
X72220000Y-78765000D02*
X72220000Y-77365000D01*
G75*
G02*
X72295000Y-77290000I75000J0D01*
G01*
X72445000Y-77290000D01*
G75*
G02*
X72520000Y-77365000I0J-75000D01*
G01*
X72520000Y-78765000D01*
G75*
G02*
X72445000Y-78840000I-75000J0D01*
G01*
X72295000Y-78840000D01*
G75*
G02*
X72220000Y-78765000I0J75000D01*
G01*
G37*
G36*
G01*
X72720000Y-78765000D02*
X72720000Y-77365000D01*
G75*
G02*
X72795000Y-77290000I75000J0D01*
G01*
X72945000Y-77290000D01*
G75*
G02*
X73020000Y-77365000I0J-75000D01*
G01*
X73020000Y-78765000D01*
G75*
G02*
X72945000Y-78840000I-75000J0D01*
G01*
X72795000Y-78840000D01*
G75*
G02*
X72720000Y-78765000I0J75000D01*
G01*
G37*
G36*
G01*
X73220000Y-78765000D02*
X73220000Y-77365000D01*
G75*
G02*
X73295000Y-77290000I75000J0D01*
G01*
X73445000Y-77290000D01*
G75*
G02*
X73520000Y-77365000I0J-75000D01*
G01*
X73520000Y-78765000D01*
G75*
G02*
X73445000Y-78840000I-75000J0D01*
G01*
X73295000Y-78840000D01*
G75*
G02*
X73220000Y-78765000I0J75000D01*
G01*
G37*
G36*
G01*
X73720000Y-78765000D02*
X73720000Y-77365000D01*
G75*
G02*
X73795000Y-77290000I75000J0D01*
G01*
X73945000Y-77290000D01*
G75*
G02*
X74020000Y-77365000I0J-75000D01*
G01*
X74020000Y-78765000D01*
G75*
G02*
X73945000Y-78840000I-75000J0D01*
G01*
X73795000Y-78840000D01*
G75*
G02*
X73720000Y-78765000I0J75000D01*
G01*
G37*
G36*
G01*
X74220000Y-78765000D02*
X74220000Y-77365000D01*
G75*
G02*
X74295000Y-77290000I75000J0D01*
G01*
X74445000Y-77290000D01*
G75*
G02*
X74520000Y-77365000I0J-75000D01*
G01*
X74520000Y-78765000D01*
G75*
G02*
X74445000Y-78840000I-75000J0D01*
G01*
X74295000Y-78840000D01*
G75*
G02*
X74220000Y-78765000I0J75000D01*
G01*
G37*
G36*
G01*
X74720000Y-78765000D02*
X74720000Y-77365000D01*
G75*
G02*
X74795000Y-77290000I75000J0D01*
G01*
X74945000Y-77290000D01*
G75*
G02*
X75020000Y-77365000I0J-75000D01*
G01*
X75020000Y-78765000D01*
G75*
G02*
X74945000Y-78840000I-75000J0D01*
G01*
X74795000Y-78840000D01*
G75*
G02*
X74720000Y-78765000I0J75000D01*
G01*
G37*
G36*
G01*
X76020000Y-76215000D02*
X76020000Y-76065000D01*
G75*
G02*
X76095000Y-75990000I75000J0D01*
G01*
X77495000Y-75990000D01*
G75*
G02*
X77570000Y-76065000I0J-75000D01*
G01*
X77570000Y-76215000D01*
G75*
G02*
X77495000Y-76290000I-75000J0D01*
G01*
X76095000Y-76290000D01*
G75*
G02*
X76020000Y-76215000I0J75000D01*
G01*
G37*
G36*
G01*
X76020000Y-75715000D02*
X76020000Y-75565000D01*
G75*
G02*
X76095000Y-75490000I75000J0D01*
G01*
X77495000Y-75490000D01*
G75*
G02*
X77570000Y-75565000I0J-75000D01*
G01*
X77570000Y-75715000D01*
G75*
G02*
X77495000Y-75790000I-75000J0D01*
G01*
X76095000Y-75790000D01*
G75*
G02*
X76020000Y-75715000I0J75000D01*
G01*
G37*
G36*
G01*
X76020000Y-75215000D02*
X76020000Y-75065000D01*
G75*
G02*
X76095000Y-74990000I75000J0D01*
G01*
X77495000Y-74990000D01*
G75*
G02*
X77570000Y-75065000I0J-75000D01*
G01*
X77570000Y-75215000D01*
G75*
G02*
X77495000Y-75290000I-75000J0D01*
G01*
X76095000Y-75290000D01*
G75*
G02*
X76020000Y-75215000I0J75000D01*
G01*
G37*
G36*
G01*
X76020000Y-74715000D02*
X76020000Y-74565000D01*
G75*
G02*
X76095000Y-74490000I75000J0D01*
G01*
X77495000Y-74490000D01*
G75*
G02*
X77570000Y-74565000I0J-75000D01*
G01*
X77570000Y-74715000D01*
G75*
G02*
X77495000Y-74790000I-75000J0D01*
G01*
X76095000Y-74790000D01*
G75*
G02*
X76020000Y-74715000I0J75000D01*
G01*
G37*
G36*
G01*
X76020000Y-74215000D02*
X76020000Y-74065000D01*
G75*
G02*
X76095000Y-73990000I75000J0D01*
G01*
X77495000Y-73990000D01*
G75*
G02*
X77570000Y-74065000I0J-75000D01*
G01*
X77570000Y-74215000D01*
G75*
G02*
X77495000Y-74290000I-75000J0D01*
G01*
X76095000Y-74290000D01*
G75*
G02*
X76020000Y-74215000I0J75000D01*
G01*
G37*
G36*
G01*
X76020000Y-73715000D02*
X76020000Y-73565000D01*
G75*
G02*
X76095000Y-73490000I75000J0D01*
G01*
X77495000Y-73490000D01*
G75*
G02*
X77570000Y-73565000I0J-75000D01*
G01*
X77570000Y-73715000D01*
G75*
G02*
X77495000Y-73790000I-75000J0D01*
G01*
X76095000Y-73790000D01*
G75*
G02*
X76020000Y-73715000I0J75000D01*
G01*
G37*
G36*
G01*
X76020000Y-73215000D02*
X76020000Y-73065000D01*
G75*
G02*
X76095000Y-72990000I75000J0D01*
G01*
X77495000Y-72990000D01*
G75*
G02*
X77570000Y-73065000I0J-75000D01*
G01*
X77570000Y-73215000D01*
G75*
G02*
X77495000Y-73290000I-75000J0D01*
G01*
X76095000Y-73290000D01*
G75*
G02*
X76020000Y-73215000I0J75000D01*
G01*
G37*
G36*
G01*
X76020000Y-72715000D02*
X76020000Y-72565000D01*
G75*
G02*
X76095000Y-72490000I75000J0D01*
G01*
X77495000Y-72490000D01*
G75*
G02*
X77570000Y-72565000I0J-75000D01*
G01*
X77570000Y-72715000D01*
G75*
G02*
X77495000Y-72790000I-75000J0D01*
G01*
X76095000Y-72790000D01*
G75*
G02*
X76020000Y-72715000I0J75000D01*
G01*
G37*
G36*
G01*
X76020000Y-72215000D02*
X76020000Y-72065000D01*
G75*
G02*
X76095000Y-71990000I75000J0D01*
G01*
X77495000Y-71990000D01*
G75*
G02*
X77570000Y-72065000I0J-75000D01*
G01*
X77570000Y-72215000D01*
G75*
G02*
X77495000Y-72290000I-75000J0D01*
G01*
X76095000Y-72290000D01*
G75*
G02*
X76020000Y-72215000I0J75000D01*
G01*
G37*
G36*
G01*
X76020000Y-71715000D02*
X76020000Y-71565000D01*
G75*
G02*
X76095000Y-71490000I75000J0D01*
G01*
X77495000Y-71490000D01*
G75*
G02*
X77570000Y-71565000I0J-75000D01*
G01*
X77570000Y-71715000D01*
G75*
G02*
X77495000Y-71790000I-75000J0D01*
G01*
X76095000Y-71790000D01*
G75*
G02*
X76020000Y-71715000I0J75000D01*
G01*
G37*
G36*
G01*
X76020000Y-71215000D02*
X76020000Y-71065000D01*
G75*
G02*
X76095000Y-70990000I75000J0D01*
G01*
X77495000Y-70990000D01*
G75*
G02*
X77570000Y-71065000I0J-75000D01*
G01*
X77570000Y-71215000D01*
G75*
G02*
X77495000Y-71290000I-75000J0D01*
G01*
X76095000Y-71290000D01*
G75*
G02*
X76020000Y-71215000I0J75000D01*
G01*
G37*
G36*
G01*
X76020000Y-70715000D02*
X76020000Y-70565000D01*
G75*
G02*
X76095000Y-70490000I75000J0D01*
G01*
X77495000Y-70490000D01*
G75*
G02*
X77570000Y-70565000I0J-75000D01*
G01*
X77570000Y-70715000D01*
G75*
G02*
X77495000Y-70790000I-75000J0D01*
G01*
X76095000Y-70790000D01*
G75*
G02*
X76020000Y-70715000I0J75000D01*
G01*
G37*
G36*
G01*
X76020000Y-70215000D02*
X76020000Y-70065000D01*
G75*
G02*
X76095000Y-69990000I75000J0D01*
G01*
X77495000Y-69990000D01*
G75*
G02*
X77570000Y-70065000I0J-75000D01*
G01*
X77570000Y-70215000D01*
G75*
G02*
X77495000Y-70290000I-75000J0D01*
G01*
X76095000Y-70290000D01*
G75*
G02*
X76020000Y-70215000I0J75000D01*
G01*
G37*
G36*
G01*
X76020000Y-69715000D02*
X76020000Y-69565000D01*
G75*
G02*
X76095000Y-69490000I75000J0D01*
G01*
X77495000Y-69490000D01*
G75*
G02*
X77570000Y-69565000I0J-75000D01*
G01*
X77570000Y-69715000D01*
G75*
G02*
X77495000Y-69790000I-75000J0D01*
G01*
X76095000Y-69790000D01*
G75*
G02*
X76020000Y-69715000I0J75000D01*
G01*
G37*
G36*
G01*
X76020000Y-69215000D02*
X76020000Y-69065000D01*
G75*
G02*
X76095000Y-68990000I75000J0D01*
G01*
X77495000Y-68990000D01*
G75*
G02*
X77570000Y-69065000I0J-75000D01*
G01*
X77570000Y-69215000D01*
G75*
G02*
X77495000Y-69290000I-75000J0D01*
G01*
X76095000Y-69290000D01*
G75*
G02*
X76020000Y-69215000I0J75000D01*
G01*
G37*
G36*
G01*
X76020000Y-68715000D02*
X76020000Y-68565000D01*
G75*
G02*
X76095000Y-68490000I75000J0D01*
G01*
X77495000Y-68490000D01*
G75*
G02*
X77570000Y-68565000I0J-75000D01*
G01*
X77570000Y-68715000D01*
G75*
G02*
X77495000Y-68790000I-75000J0D01*
G01*
X76095000Y-68790000D01*
G75*
G02*
X76020000Y-68715000I0J75000D01*
G01*
G37*
G36*
G01*
X74720000Y-67415000D02*
X74720000Y-66015000D01*
G75*
G02*
X74795000Y-65940000I75000J0D01*
G01*
X74945000Y-65940000D01*
G75*
G02*
X75020000Y-66015000I0J-75000D01*
G01*
X75020000Y-67415000D01*
G75*
G02*
X74945000Y-67490000I-75000J0D01*
G01*
X74795000Y-67490000D01*
G75*
G02*
X74720000Y-67415000I0J75000D01*
G01*
G37*
G36*
G01*
X74220000Y-67415000D02*
X74220000Y-66015000D01*
G75*
G02*
X74295000Y-65940000I75000J0D01*
G01*
X74445000Y-65940000D01*
G75*
G02*
X74520000Y-66015000I0J-75000D01*
G01*
X74520000Y-67415000D01*
G75*
G02*
X74445000Y-67490000I-75000J0D01*
G01*
X74295000Y-67490000D01*
G75*
G02*
X74220000Y-67415000I0J75000D01*
G01*
G37*
G36*
G01*
X73720000Y-67415000D02*
X73720000Y-66015000D01*
G75*
G02*
X73795000Y-65940000I75000J0D01*
G01*
X73945000Y-65940000D01*
G75*
G02*
X74020000Y-66015000I0J-75000D01*
G01*
X74020000Y-67415000D01*
G75*
G02*
X73945000Y-67490000I-75000J0D01*
G01*
X73795000Y-67490000D01*
G75*
G02*
X73720000Y-67415000I0J75000D01*
G01*
G37*
G36*
G01*
X73220000Y-67415000D02*
X73220000Y-66015000D01*
G75*
G02*
X73295000Y-65940000I75000J0D01*
G01*
X73445000Y-65940000D01*
G75*
G02*
X73520000Y-66015000I0J-75000D01*
G01*
X73520000Y-67415000D01*
G75*
G02*
X73445000Y-67490000I-75000J0D01*
G01*
X73295000Y-67490000D01*
G75*
G02*
X73220000Y-67415000I0J75000D01*
G01*
G37*
G36*
G01*
X72720000Y-67415000D02*
X72720000Y-66015000D01*
G75*
G02*
X72795000Y-65940000I75000J0D01*
G01*
X72945000Y-65940000D01*
G75*
G02*
X73020000Y-66015000I0J-75000D01*
G01*
X73020000Y-67415000D01*
G75*
G02*
X72945000Y-67490000I-75000J0D01*
G01*
X72795000Y-67490000D01*
G75*
G02*
X72720000Y-67415000I0J75000D01*
G01*
G37*
G36*
G01*
X72220000Y-67415000D02*
X72220000Y-66015000D01*
G75*
G02*
X72295000Y-65940000I75000J0D01*
G01*
X72445000Y-65940000D01*
G75*
G02*
X72520000Y-66015000I0J-75000D01*
G01*
X72520000Y-67415000D01*
G75*
G02*
X72445000Y-67490000I-75000J0D01*
G01*
X72295000Y-67490000D01*
G75*
G02*
X72220000Y-67415000I0J75000D01*
G01*
G37*
G36*
G01*
X71720000Y-67415000D02*
X71720000Y-66015000D01*
G75*
G02*
X71795000Y-65940000I75000J0D01*
G01*
X71945000Y-65940000D01*
G75*
G02*
X72020000Y-66015000I0J-75000D01*
G01*
X72020000Y-67415000D01*
G75*
G02*
X71945000Y-67490000I-75000J0D01*
G01*
X71795000Y-67490000D01*
G75*
G02*
X71720000Y-67415000I0J75000D01*
G01*
G37*
G36*
G01*
X71220000Y-67415000D02*
X71220000Y-66015000D01*
G75*
G02*
X71295000Y-65940000I75000J0D01*
G01*
X71445000Y-65940000D01*
G75*
G02*
X71520000Y-66015000I0J-75000D01*
G01*
X71520000Y-67415000D01*
G75*
G02*
X71445000Y-67490000I-75000J0D01*
G01*
X71295000Y-67490000D01*
G75*
G02*
X71220000Y-67415000I0J75000D01*
G01*
G37*
G36*
G01*
X70720000Y-67415000D02*
X70720000Y-66015000D01*
G75*
G02*
X70795000Y-65940000I75000J0D01*
G01*
X70945000Y-65940000D01*
G75*
G02*
X71020000Y-66015000I0J-75000D01*
G01*
X71020000Y-67415000D01*
G75*
G02*
X70945000Y-67490000I-75000J0D01*
G01*
X70795000Y-67490000D01*
G75*
G02*
X70720000Y-67415000I0J75000D01*
G01*
G37*
G36*
G01*
X70220000Y-67415000D02*
X70220000Y-66015000D01*
G75*
G02*
X70295000Y-65940000I75000J0D01*
G01*
X70445000Y-65940000D01*
G75*
G02*
X70520000Y-66015000I0J-75000D01*
G01*
X70520000Y-67415000D01*
G75*
G02*
X70445000Y-67490000I-75000J0D01*
G01*
X70295000Y-67490000D01*
G75*
G02*
X70220000Y-67415000I0J75000D01*
G01*
G37*
G36*
G01*
X69720000Y-67415000D02*
X69720000Y-66015000D01*
G75*
G02*
X69795000Y-65940000I75000J0D01*
G01*
X69945000Y-65940000D01*
G75*
G02*
X70020000Y-66015000I0J-75000D01*
G01*
X70020000Y-67415000D01*
G75*
G02*
X69945000Y-67490000I-75000J0D01*
G01*
X69795000Y-67490000D01*
G75*
G02*
X69720000Y-67415000I0J75000D01*
G01*
G37*
G36*
G01*
X69220000Y-67415000D02*
X69220000Y-66015000D01*
G75*
G02*
X69295000Y-65940000I75000J0D01*
G01*
X69445000Y-65940000D01*
G75*
G02*
X69520000Y-66015000I0J-75000D01*
G01*
X69520000Y-67415000D01*
G75*
G02*
X69445000Y-67490000I-75000J0D01*
G01*
X69295000Y-67490000D01*
G75*
G02*
X69220000Y-67415000I0J75000D01*
G01*
G37*
G36*
G01*
X68720000Y-67415000D02*
X68720000Y-66015000D01*
G75*
G02*
X68795000Y-65940000I75000J0D01*
G01*
X68945000Y-65940000D01*
G75*
G02*
X69020000Y-66015000I0J-75000D01*
G01*
X69020000Y-67415000D01*
G75*
G02*
X68945000Y-67490000I-75000J0D01*
G01*
X68795000Y-67490000D01*
G75*
G02*
X68720000Y-67415000I0J75000D01*
G01*
G37*
G36*
G01*
X68220000Y-67415000D02*
X68220000Y-66015000D01*
G75*
G02*
X68295000Y-65940000I75000J0D01*
G01*
X68445000Y-65940000D01*
G75*
G02*
X68520000Y-66015000I0J-75000D01*
G01*
X68520000Y-67415000D01*
G75*
G02*
X68445000Y-67490000I-75000J0D01*
G01*
X68295000Y-67490000D01*
G75*
G02*
X68220000Y-67415000I0J75000D01*
G01*
G37*
G36*
G01*
X67720000Y-67415000D02*
X67720000Y-66015000D01*
G75*
G02*
X67795000Y-65940000I75000J0D01*
G01*
X67945000Y-65940000D01*
G75*
G02*
X68020000Y-66015000I0J-75000D01*
G01*
X68020000Y-67415000D01*
G75*
G02*
X67945000Y-67490000I-75000J0D01*
G01*
X67795000Y-67490000D01*
G75*
G02*
X67720000Y-67415000I0J75000D01*
G01*
G37*
G36*
G01*
X67220000Y-67415000D02*
X67220000Y-66015000D01*
G75*
G02*
X67295000Y-65940000I75000J0D01*
G01*
X67445000Y-65940000D01*
G75*
G02*
X67520000Y-66015000I0J-75000D01*
G01*
X67520000Y-67415000D01*
G75*
G02*
X67445000Y-67490000I-75000J0D01*
G01*
X67295000Y-67490000D01*
G75*
G02*
X67220000Y-67415000I0J75000D01*
G01*
G37*
%TD*%
D31*
%TO.C,U2*%
X29870000Y-69610000D03*
X29870000Y-67310000D03*
X29870000Y-65010000D03*
D32*
X36170000Y-67310000D03*
%TD*%
D33*
%TO.C,H1*%
X20320000Y-20320000D03*
%TD*%
%TO.C,H2*%
X220980000Y-17780000D03*
%TD*%
%TO.C,H3*%
X17780000Y-165100000D03*
%TD*%
%TO.C,H4*%
X220980000Y-165100000D03*
%TD*%
M02*
