%TF.GenerationSoftware,KiCad,Pcbnew,5.1.8-db9833491~87~ubuntu20.04.1*%
%TF.CreationDate,2020-11-28T16:20:25-05:00*%
%TF.ProjectId,DevBoard,44657642-6f61-4726-942e-6b696361645f,V01*%
%TF.SameCoordinates,Original*%
%TF.FileFunction,Legend,Top*%
%TF.FilePolarity,Positive*%
%FSLAX46Y46*%
G04 Gerber Fmt 4.6, Leading zero omitted, Abs format (unit mm)*
G04 Created by KiCad (PCBNEW 5.1.8-db9833491~87~ubuntu20.04.1) date 2020-11-28 16:20:25*
%MOMM*%
%LPD*%
G01*
G04 APERTURE LIST*
%ADD10C,0.120000*%
%ADD11C,0.100000*%
%ADD12C,0.150000*%
G04 APERTURE END LIST*
D10*
%TO.C,C1*%
X62245000Y-72249420D02*
X62245000Y-72530580D01*
X61225000Y-72249420D02*
X61225000Y-72530580D01*
%TO.C,C2*%
X80520000Y-68439420D02*
X80520000Y-68720580D01*
X79500000Y-68439420D02*
X79500000Y-68720580D01*
%TO.C,C3*%
X67945580Y-81790000D02*
X67664420Y-81790000D01*
X67945580Y-80770000D02*
X67664420Y-80770000D01*
%TO.C,C4*%
X66674420Y-64010000D02*
X66955580Y-64010000D01*
X66674420Y-62990000D02*
X66955580Y-62990000D01*
%TO.C,C5*%
X45210000Y-74789420D02*
X45210000Y-75070580D01*
X46230000Y-74789420D02*
X46230000Y-75070580D01*
%TO.C,C6*%
X41400000Y-79655580D02*
X41400000Y-79374420D01*
X42420000Y-79655580D02*
X42420000Y-79374420D01*
%TO.C,C7*%
X75845580Y-80770000D02*
X75564420Y-80770000D01*
X75845580Y-81790000D02*
X75564420Y-81790000D01*
%TO.C,C8*%
X61720000Y-65899420D02*
X61720000Y-66180580D01*
X62740000Y-65899420D02*
X62740000Y-66180580D01*
%TO.C,C9*%
X45210000Y-79655580D02*
X45210000Y-79374420D01*
X46230000Y-79655580D02*
X46230000Y-79374420D01*
%TO.C,C10*%
X41400000Y-74789420D02*
X41400000Y-75070580D01*
X42420000Y-74789420D02*
X42420000Y-75070580D01*
%TO.C,C11*%
X110315000Y-155929698D02*
X111115000Y-155929698D01*
X110715000Y-156329698D02*
X110715000Y-155529698D01*
X112497000Y-147839000D02*
X113563000Y-147839000D01*
X112262000Y-147879000D02*
X113798000Y-147879000D01*
X112082000Y-147919000D02*
X113978000Y-147919000D01*
X111932000Y-147959000D02*
X114128000Y-147959000D01*
X111801000Y-147999000D02*
X114259000Y-147999000D01*
X111684000Y-148039000D02*
X114376000Y-148039000D01*
X111577000Y-148079000D02*
X114483000Y-148079000D01*
X111478000Y-148119000D02*
X114582000Y-148119000D01*
X111385000Y-148159000D02*
X114675000Y-148159000D01*
X111299000Y-148199000D02*
X114761000Y-148199000D01*
X111217000Y-148239000D02*
X114843000Y-148239000D01*
X111140000Y-148279000D02*
X114920000Y-148279000D01*
X111066000Y-148319000D02*
X114994000Y-148319000D01*
X110996000Y-148359000D02*
X115064000Y-148359000D01*
X110928000Y-148399000D02*
X115132000Y-148399000D01*
X110864000Y-148439000D02*
X115196000Y-148439000D01*
X110802000Y-148479000D02*
X115258000Y-148479000D01*
X110743000Y-148519000D02*
X115317000Y-148519000D01*
X110685000Y-148559000D02*
X115375000Y-148559000D01*
X110630000Y-148599000D02*
X115430000Y-148599000D01*
X110576000Y-148639000D02*
X115484000Y-148639000D01*
X110525000Y-148679000D02*
X115535000Y-148679000D01*
X110474000Y-148719000D02*
X115586000Y-148719000D01*
X110426000Y-148759000D02*
X115634000Y-148759000D01*
X110379000Y-148799000D02*
X115681000Y-148799000D01*
X110333000Y-148839000D02*
X115727000Y-148839000D01*
X110289000Y-148879000D02*
X115771000Y-148879000D01*
X110246000Y-148919000D02*
X115814000Y-148919000D01*
X110204000Y-148959000D02*
X115856000Y-148959000D01*
X110163000Y-148999000D02*
X115897000Y-148999000D01*
X110123000Y-149039000D02*
X115937000Y-149039000D01*
X110085000Y-149079000D02*
X115975000Y-149079000D01*
X110047000Y-149119000D02*
X116013000Y-149119000D01*
X114070000Y-149159000D02*
X116049000Y-149159000D01*
X110011000Y-149159000D02*
X111990000Y-149159000D01*
X114070000Y-149199000D02*
X116085000Y-149199000D01*
X109975000Y-149199000D02*
X111990000Y-149199000D01*
X114070000Y-149239000D02*
X116120000Y-149239000D01*
X109940000Y-149239000D02*
X111990000Y-149239000D01*
X114070000Y-149279000D02*
X116154000Y-149279000D01*
X109906000Y-149279000D02*
X111990000Y-149279000D01*
X114070000Y-149319000D02*
X116186000Y-149319000D01*
X109874000Y-149319000D02*
X111990000Y-149319000D01*
X114070000Y-149359000D02*
X116219000Y-149359000D01*
X109841000Y-149359000D02*
X111990000Y-149359000D01*
X114070000Y-149399000D02*
X116250000Y-149399000D01*
X109810000Y-149399000D02*
X111990000Y-149399000D01*
X114070000Y-149439000D02*
X116280000Y-149439000D01*
X109780000Y-149439000D02*
X111990000Y-149439000D01*
X114070000Y-149479000D02*
X116310000Y-149479000D01*
X109750000Y-149479000D02*
X111990000Y-149479000D01*
X114070000Y-149519000D02*
X116339000Y-149519000D01*
X109721000Y-149519000D02*
X111990000Y-149519000D01*
X114070000Y-149559000D02*
X116368000Y-149559000D01*
X109692000Y-149559000D02*
X111990000Y-149559000D01*
X114070000Y-149599000D02*
X116395000Y-149599000D01*
X109665000Y-149599000D02*
X111990000Y-149599000D01*
X114070000Y-149639000D02*
X116422000Y-149639000D01*
X109638000Y-149639000D02*
X111990000Y-149639000D01*
X114070000Y-149679000D02*
X116448000Y-149679000D01*
X109612000Y-149679000D02*
X111990000Y-149679000D01*
X114070000Y-149719000D02*
X116474000Y-149719000D01*
X109586000Y-149719000D02*
X111990000Y-149719000D01*
X114070000Y-149759000D02*
X116499000Y-149759000D01*
X109561000Y-149759000D02*
X111990000Y-149759000D01*
X114070000Y-149799000D02*
X116523000Y-149799000D01*
X109537000Y-149799000D02*
X111990000Y-149799000D01*
X114070000Y-149839000D02*
X116547000Y-149839000D01*
X109513000Y-149839000D02*
X111990000Y-149839000D01*
X114070000Y-149879000D02*
X116570000Y-149879000D01*
X109490000Y-149879000D02*
X111990000Y-149879000D01*
X114070000Y-149919000D02*
X116592000Y-149919000D01*
X109468000Y-149919000D02*
X111990000Y-149919000D01*
X114070000Y-149959000D02*
X116614000Y-149959000D01*
X109446000Y-149959000D02*
X111990000Y-149959000D01*
X114070000Y-149999000D02*
X116636000Y-149999000D01*
X109424000Y-149999000D02*
X111990000Y-149999000D01*
X114070000Y-150039000D02*
X116657000Y-150039000D01*
X109403000Y-150039000D02*
X111990000Y-150039000D01*
X114070000Y-150079000D02*
X116677000Y-150079000D01*
X109383000Y-150079000D02*
X111990000Y-150079000D01*
X114070000Y-150119000D02*
X116696000Y-150119000D01*
X109364000Y-150119000D02*
X111990000Y-150119000D01*
X114070000Y-150159000D02*
X116716000Y-150159000D01*
X109344000Y-150159000D02*
X111990000Y-150159000D01*
X114070000Y-150199000D02*
X116734000Y-150199000D01*
X109326000Y-150199000D02*
X111990000Y-150199000D01*
X114070000Y-150239000D02*
X116752000Y-150239000D01*
X109308000Y-150239000D02*
X111990000Y-150239000D01*
X114070000Y-150279000D02*
X116770000Y-150279000D01*
X109290000Y-150279000D02*
X111990000Y-150279000D01*
X114070000Y-150319000D02*
X116787000Y-150319000D01*
X109273000Y-150319000D02*
X111990000Y-150319000D01*
X114070000Y-150359000D02*
X116804000Y-150359000D01*
X109256000Y-150359000D02*
X111990000Y-150359000D01*
X114070000Y-150399000D02*
X116820000Y-150399000D01*
X109240000Y-150399000D02*
X111990000Y-150399000D01*
X114070000Y-150439000D02*
X116835000Y-150439000D01*
X109225000Y-150439000D02*
X111990000Y-150439000D01*
X114070000Y-150479000D02*
X116851000Y-150479000D01*
X109209000Y-150479000D02*
X111990000Y-150479000D01*
X114070000Y-150519000D02*
X116865000Y-150519000D01*
X109195000Y-150519000D02*
X111990000Y-150519000D01*
X114070000Y-150559000D02*
X116880000Y-150559000D01*
X109180000Y-150559000D02*
X111990000Y-150559000D01*
X114070000Y-150599000D02*
X116893000Y-150599000D01*
X109167000Y-150599000D02*
X111990000Y-150599000D01*
X114070000Y-150639000D02*
X116907000Y-150639000D01*
X109153000Y-150639000D02*
X111990000Y-150639000D01*
X114070000Y-150679000D02*
X116919000Y-150679000D01*
X109141000Y-150679000D02*
X111990000Y-150679000D01*
X114070000Y-150719000D02*
X116932000Y-150719000D01*
X109128000Y-150719000D02*
X111990000Y-150719000D01*
X114070000Y-150759000D02*
X116944000Y-150759000D01*
X109116000Y-150759000D02*
X111990000Y-150759000D01*
X114070000Y-150799000D02*
X116955000Y-150799000D01*
X109105000Y-150799000D02*
X111990000Y-150799000D01*
X114070000Y-150839000D02*
X116966000Y-150839000D01*
X109094000Y-150839000D02*
X111990000Y-150839000D01*
X114070000Y-150879000D02*
X116977000Y-150879000D01*
X109083000Y-150879000D02*
X111990000Y-150879000D01*
X114070000Y-150919000D02*
X116987000Y-150919000D01*
X109073000Y-150919000D02*
X111990000Y-150919000D01*
X114070000Y-150959000D02*
X116997000Y-150959000D01*
X109063000Y-150959000D02*
X111990000Y-150959000D01*
X114070000Y-150999000D02*
X117006000Y-150999000D01*
X109054000Y-150999000D02*
X111990000Y-150999000D01*
X114070000Y-151039000D02*
X117015000Y-151039000D01*
X109045000Y-151039000D02*
X111990000Y-151039000D01*
X114070000Y-151079000D02*
X117024000Y-151079000D01*
X109036000Y-151079000D02*
X111990000Y-151079000D01*
X114070000Y-151119000D02*
X117032000Y-151119000D01*
X109028000Y-151119000D02*
X111990000Y-151119000D01*
X114070000Y-151159000D02*
X117040000Y-151159000D01*
X109020000Y-151159000D02*
X111990000Y-151159000D01*
X114070000Y-151199000D02*
X117047000Y-151199000D01*
X109013000Y-151199000D02*
X111990000Y-151199000D01*
X109006000Y-151240000D02*
X117054000Y-151240000D01*
X109000000Y-151280000D02*
X117060000Y-151280000D01*
X108993000Y-151320000D02*
X117067000Y-151320000D01*
X108988000Y-151360000D02*
X117072000Y-151360000D01*
X108982000Y-151400000D02*
X117078000Y-151400000D01*
X108978000Y-151440000D02*
X117082000Y-151440000D01*
X108973000Y-151480000D02*
X117087000Y-151480000D01*
X108969000Y-151520000D02*
X117091000Y-151520000D01*
X108965000Y-151560000D02*
X117095000Y-151560000D01*
X108962000Y-151600000D02*
X117098000Y-151600000D01*
X108959000Y-151640000D02*
X117101000Y-151640000D01*
X108956000Y-151680000D02*
X117104000Y-151680000D01*
X108954000Y-151720000D02*
X117106000Y-151720000D01*
X108953000Y-151760000D02*
X117107000Y-151760000D01*
X108951000Y-151800000D02*
X117109000Y-151800000D01*
X108950000Y-151840000D02*
X117110000Y-151840000D01*
X108950000Y-151880000D02*
X117110000Y-151880000D01*
X108950000Y-151920000D02*
X117110000Y-151920000D01*
X117150000Y-151920000D02*
G75*
G03*
X117150000Y-151920000I-4120000J0D01*
G01*
%TO.C,C12*%
X67620000Y-154460000D02*
G75*
G03*
X67620000Y-154460000I-4120000J0D01*
G01*
X59420000Y-154460000D02*
X67580000Y-154460000D01*
X59420000Y-154420000D02*
X67580000Y-154420000D01*
X59420000Y-154380000D02*
X67580000Y-154380000D01*
X59421000Y-154340000D02*
X67579000Y-154340000D01*
X59423000Y-154300000D02*
X67577000Y-154300000D01*
X59424000Y-154260000D02*
X67576000Y-154260000D01*
X59426000Y-154220000D02*
X67574000Y-154220000D01*
X59429000Y-154180000D02*
X67571000Y-154180000D01*
X59432000Y-154140000D02*
X67568000Y-154140000D01*
X59435000Y-154100000D02*
X67565000Y-154100000D01*
X59439000Y-154060000D02*
X67561000Y-154060000D01*
X59443000Y-154020000D02*
X67557000Y-154020000D01*
X59448000Y-153980000D02*
X67552000Y-153980000D01*
X59452000Y-153940000D02*
X67548000Y-153940000D01*
X59458000Y-153900000D02*
X67542000Y-153900000D01*
X59463000Y-153860000D02*
X67537000Y-153860000D01*
X59470000Y-153820000D02*
X67530000Y-153820000D01*
X59476000Y-153780000D02*
X67524000Y-153780000D01*
X59483000Y-153739000D02*
X62460000Y-153739000D01*
X64540000Y-153739000D02*
X67517000Y-153739000D01*
X59490000Y-153699000D02*
X62460000Y-153699000D01*
X64540000Y-153699000D02*
X67510000Y-153699000D01*
X59498000Y-153659000D02*
X62460000Y-153659000D01*
X64540000Y-153659000D02*
X67502000Y-153659000D01*
X59506000Y-153619000D02*
X62460000Y-153619000D01*
X64540000Y-153619000D02*
X67494000Y-153619000D01*
X59515000Y-153579000D02*
X62460000Y-153579000D01*
X64540000Y-153579000D02*
X67485000Y-153579000D01*
X59524000Y-153539000D02*
X62460000Y-153539000D01*
X64540000Y-153539000D02*
X67476000Y-153539000D01*
X59533000Y-153499000D02*
X62460000Y-153499000D01*
X64540000Y-153499000D02*
X67467000Y-153499000D01*
X59543000Y-153459000D02*
X62460000Y-153459000D01*
X64540000Y-153459000D02*
X67457000Y-153459000D01*
X59553000Y-153419000D02*
X62460000Y-153419000D01*
X64540000Y-153419000D02*
X67447000Y-153419000D01*
X59564000Y-153379000D02*
X62460000Y-153379000D01*
X64540000Y-153379000D02*
X67436000Y-153379000D01*
X59575000Y-153339000D02*
X62460000Y-153339000D01*
X64540000Y-153339000D02*
X67425000Y-153339000D01*
X59586000Y-153299000D02*
X62460000Y-153299000D01*
X64540000Y-153299000D02*
X67414000Y-153299000D01*
X59598000Y-153259000D02*
X62460000Y-153259000D01*
X64540000Y-153259000D02*
X67402000Y-153259000D01*
X59611000Y-153219000D02*
X62460000Y-153219000D01*
X64540000Y-153219000D02*
X67389000Y-153219000D01*
X59623000Y-153179000D02*
X62460000Y-153179000D01*
X64540000Y-153179000D02*
X67377000Y-153179000D01*
X59637000Y-153139000D02*
X62460000Y-153139000D01*
X64540000Y-153139000D02*
X67363000Y-153139000D01*
X59650000Y-153099000D02*
X62460000Y-153099000D01*
X64540000Y-153099000D02*
X67350000Y-153099000D01*
X59665000Y-153059000D02*
X62460000Y-153059000D01*
X64540000Y-153059000D02*
X67335000Y-153059000D01*
X59679000Y-153019000D02*
X62460000Y-153019000D01*
X64540000Y-153019000D02*
X67321000Y-153019000D01*
X59695000Y-152979000D02*
X62460000Y-152979000D01*
X64540000Y-152979000D02*
X67305000Y-152979000D01*
X59710000Y-152939000D02*
X62460000Y-152939000D01*
X64540000Y-152939000D02*
X67290000Y-152939000D01*
X59726000Y-152899000D02*
X62460000Y-152899000D01*
X64540000Y-152899000D02*
X67274000Y-152899000D01*
X59743000Y-152859000D02*
X62460000Y-152859000D01*
X64540000Y-152859000D02*
X67257000Y-152859000D01*
X59760000Y-152819000D02*
X62460000Y-152819000D01*
X64540000Y-152819000D02*
X67240000Y-152819000D01*
X59778000Y-152779000D02*
X62460000Y-152779000D01*
X64540000Y-152779000D02*
X67222000Y-152779000D01*
X59796000Y-152739000D02*
X62460000Y-152739000D01*
X64540000Y-152739000D02*
X67204000Y-152739000D01*
X59814000Y-152699000D02*
X62460000Y-152699000D01*
X64540000Y-152699000D02*
X67186000Y-152699000D01*
X59834000Y-152659000D02*
X62460000Y-152659000D01*
X64540000Y-152659000D02*
X67166000Y-152659000D01*
X59853000Y-152619000D02*
X62460000Y-152619000D01*
X64540000Y-152619000D02*
X67147000Y-152619000D01*
X59873000Y-152579000D02*
X62460000Y-152579000D01*
X64540000Y-152579000D02*
X67127000Y-152579000D01*
X59894000Y-152539000D02*
X62460000Y-152539000D01*
X64540000Y-152539000D02*
X67106000Y-152539000D01*
X59916000Y-152499000D02*
X62460000Y-152499000D01*
X64540000Y-152499000D02*
X67084000Y-152499000D01*
X59938000Y-152459000D02*
X62460000Y-152459000D01*
X64540000Y-152459000D02*
X67062000Y-152459000D01*
X59960000Y-152419000D02*
X62460000Y-152419000D01*
X64540000Y-152419000D02*
X67040000Y-152419000D01*
X59983000Y-152379000D02*
X62460000Y-152379000D01*
X64540000Y-152379000D02*
X67017000Y-152379000D01*
X60007000Y-152339000D02*
X62460000Y-152339000D01*
X64540000Y-152339000D02*
X66993000Y-152339000D01*
X60031000Y-152299000D02*
X62460000Y-152299000D01*
X64540000Y-152299000D02*
X66969000Y-152299000D01*
X60056000Y-152259000D02*
X62460000Y-152259000D01*
X64540000Y-152259000D02*
X66944000Y-152259000D01*
X60082000Y-152219000D02*
X62460000Y-152219000D01*
X64540000Y-152219000D02*
X66918000Y-152219000D01*
X60108000Y-152179000D02*
X62460000Y-152179000D01*
X64540000Y-152179000D02*
X66892000Y-152179000D01*
X60135000Y-152139000D02*
X62460000Y-152139000D01*
X64540000Y-152139000D02*
X66865000Y-152139000D01*
X60162000Y-152099000D02*
X62460000Y-152099000D01*
X64540000Y-152099000D02*
X66838000Y-152099000D01*
X60191000Y-152059000D02*
X62460000Y-152059000D01*
X64540000Y-152059000D02*
X66809000Y-152059000D01*
X60220000Y-152019000D02*
X62460000Y-152019000D01*
X64540000Y-152019000D02*
X66780000Y-152019000D01*
X60250000Y-151979000D02*
X62460000Y-151979000D01*
X64540000Y-151979000D02*
X66750000Y-151979000D01*
X60280000Y-151939000D02*
X62460000Y-151939000D01*
X64540000Y-151939000D02*
X66720000Y-151939000D01*
X60311000Y-151899000D02*
X62460000Y-151899000D01*
X64540000Y-151899000D02*
X66689000Y-151899000D01*
X60344000Y-151859000D02*
X62460000Y-151859000D01*
X64540000Y-151859000D02*
X66656000Y-151859000D01*
X60376000Y-151819000D02*
X62460000Y-151819000D01*
X64540000Y-151819000D02*
X66624000Y-151819000D01*
X60410000Y-151779000D02*
X62460000Y-151779000D01*
X64540000Y-151779000D02*
X66590000Y-151779000D01*
X60445000Y-151739000D02*
X62460000Y-151739000D01*
X64540000Y-151739000D02*
X66555000Y-151739000D01*
X60481000Y-151699000D02*
X62460000Y-151699000D01*
X64540000Y-151699000D02*
X66519000Y-151699000D01*
X60517000Y-151659000D02*
X66483000Y-151659000D01*
X60555000Y-151619000D02*
X66445000Y-151619000D01*
X60593000Y-151579000D02*
X66407000Y-151579000D01*
X60633000Y-151539000D02*
X66367000Y-151539000D01*
X60674000Y-151499000D02*
X66326000Y-151499000D01*
X60716000Y-151459000D02*
X66284000Y-151459000D01*
X60759000Y-151419000D02*
X66241000Y-151419000D01*
X60803000Y-151379000D02*
X66197000Y-151379000D01*
X60849000Y-151339000D02*
X66151000Y-151339000D01*
X60896000Y-151299000D02*
X66104000Y-151299000D01*
X60944000Y-151259000D02*
X66056000Y-151259000D01*
X60995000Y-151219000D02*
X66005000Y-151219000D01*
X61046000Y-151179000D02*
X65954000Y-151179000D01*
X61100000Y-151139000D02*
X65900000Y-151139000D01*
X61155000Y-151099000D02*
X65845000Y-151099000D01*
X61213000Y-151059000D02*
X65787000Y-151059000D01*
X61272000Y-151019000D02*
X65728000Y-151019000D01*
X61334000Y-150979000D02*
X65666000Y-150979000D01*
X61398000Y-150939000D02*
X65602000Y-150939000D01*
X61466000Y-150899000D02*
X65534000Y-150899000D01*
X61536000Y-150859000D02*
X65464000Y-150859000D01*
X61610000Y-150819000D02*
X65390000Y-150819000D01*
X61687000Y-150779000D02*
X65313000Y-150779000D01*
X61769000Y-150739000D02*
X65231000Y-150739000D01*
X61855000Y-150699000D02*
X65145000Y-150699000D01*
X61948000Y-150659000D02*
X65052000Y-150659000D01*
X62047000Y-150619000D02*
X64953000Y-150619000D01*
X62154000Y-150579000D02*
X64846000Y-150579000D01*
X62271000Y-150539000D02*
X64729000Y-150539000D01*
X62402000Y-150499000D02*
X64598000Y-150499000D01*
X62552000Y-150459000D02*
X64448000Y-150459000D01*
X62732000Y-150419000D02*
X64268000Y-150419000D01*
X62967000Y-150379000D02*
X64033000Y-150379000D01*
X61185000Y-158869698D02*
X61185000Y-158069698D01*
X60785000Y-158469698D02*
X61585000Y-158469698D01*
%TO.C,D1*%
X21610000Y-56155000D02*
X21610000Y-53065000D01*
X21550000Y-54610000D02*
G75*
G03*
X21550000Y-54610000I-2500000J0D01*
G01*
X16060000Y-54609538D02*
G75*
G03*
X21610000Y-56154830I2990000J-462D01*
G01*
X16060000Y-54610462D02*
G75*
G02*
X21610000Y-53065170I2990000J462D01*
G01*
D11*
%TO.C,D2*%
X30630000Y-74550000D02*
X30930000Y-74550000D01*
X30630000Y-74900000D02*
X30630000Y-74550000D01*
X32630000Y-74550000D02*
X32630000Y-74850000D01*
X32305000Y-74550000D02*
X32630000Y-74550000D01*
X30630000Y-77850000D02*
X30980000Y-77850000D01*
X30630000Y-77500000D02*
X30630000Y-77850000D01*
X32455000Y-77525000D02*
X33155000Y-77525000D01*
X32130000Y-77850000D02*
X32455000Y-77525000D01*
D10*
%TO.C,FB1*%
X49020000Y-76037221D02*
X49020000Y-76362779D01*
X50040000Y-76037221D02*
X50040000Y-76362779D01*
%TO.C,J1*%
X97730000Y-63560000D02*
X97730000Y-62230000D01*
X99060000Y-63560000D02*
X97730000Y-63560000D01*
X100330000Y-63560000D02*
X100330000Y-60900000D01*
X100330000Y-60900000D02*
X113090000Y-60900000D01*
X100330000Y-63560000D02*
X113090000Y-63560000D01*
X113090000Y-63560000D02*
X113090000Y-60900000D01*
D11*
%TO.C,J2*%
X17880000Y-68490000D02*
X17880000Y-68990000D01*
X17880000Y-68490000D02*
X17380000Y-68490000D01*
X17880000Y-76290000D02*
X17880000Y-75790000D01*
X17880000Y-76290000D02*
X17480000Y-76290000D01*
X12680000Y-76290000D02*
X13180000Y-76290000D01*
X12680000Y-76290000D02*
X12680000Y-75790000D01*
X12680000Y-68490000D02*
X12680000Y-68990000D01*
X12680000Y-68490000D02*
X13180000Y-68490000D01*
D10*
%TO.C,J3*%
X72450000Y-49470000D02*
X72450000Y-50800000D01*
X71120000Y-49470000D02*
X72450000Y-49470000D01*
X72450000Y-52070000D02*
X72450000Y-54670000D01*
X69850000Y-52070000D02*
X72450000Y-52070000D01*
X69850000Y-49470000D02*
X69850000Y-52070000D01*
X72450000Y-54670000D02*
X62170000Y-54670000D01*
X69850000Y-49470000D02*
X62170000Y-49470000D01*
X62170000Y-49470000D02*
X62170000Y-54670000D01*
%TO.C,J4*%
X131970000Y-169040000D02*
X131970000Y-153540000D01*
X149970000Y-169040000D02*
X131970000Y-169040000D01*
X149970000Y-153540000D02*
X149970000Y-169040000D01*
X131970000Y-153540000D02*
X149970000Y-153540000D01*
%TO.C,J5*%
X189120000Y-153540000D02*
X207120000Y-153540000D01*
X207120000Y-153540000D02*
X207120000Y-169040000D01*
X207120000Y-169040000D02*
X189120000Y-169040000D01*
X189120000Y-169040000D02*
X189120000Y-153540000D01*
%TO.C,J6*%
X183655000Y-165758000D02*
X169405000Y-165758000D01*
X183655000Y-152758000D02*
X169405000Y-152758000D01*
X169405000Y-165758000D02*
X169405000Y-152758000D01*
X183655000Y-152758000D02*
X183655000Y-165758000D01*
%TO.C,J7*%
X204410000Y-63440000D02*
X205740000Y-63440000D01*
X204410000Y-64770000D02*
X204410000Y-63440000D01*
X204410000Y-66040000D02*
X207070000Y-66040000D01*
X207070000Y-66040000D02*
X207070000Y-83880000D01*
X204410000Y-66040000D02*
X204410000Y-83880000D01*
X204410000Y-83880000D02*
X207070000Y-83880000D01*
%TO.C,J8*%
X189170000Y-83880000D02*
X191830000Y-83880000D01*
X189170000Y-66040000D02*
X189170000Y-83880000D01*
X191830000Y-66040000D02*
X191830000Y-83880000D01*
X189170000Y-66040000D02*
X191830000Y-66040000D01*
X189170000Y-64770000D02*
X189170000Y-63440000D01*
X189170000Y-63440000D02*
X190500000Y-63440000D01*
%TO.C,J9*%
X163770000Y-63440000D02*
X165100000Y-63440000D01*
X163770000Y-64770000D02*
X163770000Y-63440000D01*
X163770000Y-66040000D02*
X166430000Y-66040000D01*
X166430000Y-66040000D02*
X166430000Y-83880000D01*
X163770000Y-66040000D02*
X163770000Y-83880000D01*
X163770000Y-83880000D02*
X166430000Y-83880000D01*
%TO.C,J10*%
X37881325Y-147320000D02*
X38314338Y-147070000D01*
X38314338Y-147570000D02*
X37881325Y-147320000D01*
X38314338Y-147070000D02*
X38314338Y-147570000D01*
X37420000Y-157310000D02*
X25080000Y-157310000D01*
X37420000Y-104090000D02*
X37420000Y-157310000D01*
X25080000Y-104090000D02*
X37420000Y-104090000D01*
%TO.C,J11*%
X79950000Y-148530000D02*
X79950000Y-151190000D01*
X82550000Y-148530000D02*
X79950000Y-148530000D01*
X82550000Y-151190000D02*
X79950000Y-151190000D01*
X82550000Y-148530000D02*
X82550000Y-151190000D01*
X83820000Y-148530000D02*
X85150000Y-148530000D01*
X85150000Y-148530000D02*
X85150000Y-149860000D01*
%TO.C,J12*%
X94400000Y-157830000D02*
X94400000Y-169830000D01*
X83400000Y-157830000D02*
X94400000Y-157830000D01*
X83400000Y-169830000D02*
X83400000Y-157830000D01*
X94400000Y-169830000D02*
X83400000Y-169830000D01*
X91900000Y-169830000D02*
X91900000Y-173330000D01*
X91900000Y-173330000D02*
X85900000Y-173330000D01*
X85900000Y-169830000D02*
X85900000Y-173330000D01*
%TO.C,J14*%
X52010000Y-14545000D02*
X52010000Y-17205000D01*
X54610000Y-14545000D02*
X52010000Y-14545000D01*
X54610000Y-17205000D02*
X52010000Y-17205000D01*
X54610000Y-14545000D02*
X54610000Y-17205000D01*
X55880000Y-14545000D02*
X57210000Y-14545000D01*
X57210000Y-14545000D02*
X57210000Y-15875000D01*
%TO.C,J16*%
X214690000Y-14545000D02*
X214690000Y-15875000D01*
X213360000Y-14545000D02*
X214690000Y-14545000D01*
X212090000Y-14545000D02*
X212090000Y-17205000D01*
X212090000Y-17205000D02*
X209490000Y-17205000D01*
X212090000Y-14545000D02*
X209490000Y-14545000D01*
X209490000Y-14545000D02*
X209490000Y-17205000D01*
%TO.C,J18*%
X195640000Y-14545000D02*
X195640000Y-15875000D01*
X194310000Y-14545000D02*
X195640000Y-14545000D01*
X193040000Y-14545000D02*
X193040000Y-17205000D01*
X193040000Y-17205000D02*
X190440000Y-17205000D01*
X193040000Y-14545000D02*
X190440000Y-14545000D01*
X190440000Y-14545000D02*
X190440000Y-17205000D01*
%TO.C,J20*%
X38160000Y-14545000D02*
X38160000Y-15875000D01*
X36830000Y-14545000D02*
X38160000Y-14545000D01*
X35560000Y-14545000D02*
X35560000Y-17205000D01*
X35560000Y-17205000D02*
X32960000Y-17205000D01*
X35560000Y-14545000D02*
X32960000Y-14545000D01*
X32960000Y-14545000D02*
X32960000Y-17205000D01*
%TO.C,J22*%
X155000000Y-13275000D02*
X155000000Y-14605000D01*
X153670000Y-13275000D02*
X155000000Y-13275000D01*
X152400000Y-13275000D02*
X152400000Y-15935000D01*
X152400000Y-15935000D02*
X149800000Y-15935000D01*
X152400000Y-13275000D02*
X149800000Y-13275000D01*
X149800000Y-13275000D02*
X149800000Y-15935000D01*
%TO.C,J24*%
X175320000Y-13275000D02*
X175320000Y-14605000D01*
X173990000Y-13275000D02*
X175320000Y-13275000D01*
X172720000Y-13275000D02*
X172720000Y-15935000D01*
X172720000Y-15935000D02*
X170120000Y-15935000D01*
X172720000Y-13275000D02*
X170120000Y-13275000D01*
X170120000Y-13275000D02*
X170120000Y-15935000D01*
%TO.C,J26*%
X96580000Y-14545000D02*
X96580000Y-15875000D01*
X95250000Y-14545000D02*
X96580000Y-14545000D01*
X93980000Y-14545000D02*
X93980000Y-17205000D01*
X93980000Y-17205000D02*
X91380000Y-17205000D01*
X93980000Y-14545000D02*
X91380000Y-14545000D01*
X91380000Y-14545000D02*
X91380000Y-17205000D01*
%TO.C,J28*%
X71060000Y-14545000D02*
X71060000Y-17205000D01*
X73660000Y-14545000D02*
X71060000Y-14545000D01*
X73660000Y-17205000D02*
X71060000Y-17205000D01*
X73660000Y-14545000D02*
X73660000Y-17205000D01*
X74930000Y-14545000D02*
X76260000Y-14545000D01*
X76260000Y-14545000D02*
X76260000Y-15875000D01*
%TO.C,J30*%
X132020000Y-13580001D02*
X132020000Y-16240001D01*
X134620000Y-13580001D02*
X132020000Y-13580001D01*
X134620000Y-16240001D02*
X132020000Y-16240001D01*
X134620000Y-13580001D02*
X134620000Y-16240001D01*
X135890000Y-13580001D02*
X137220000Y-13580001D01*
X137220000Y-13580001D02*
X137220000Y-14910001D01*
%TO.C,J32*%
X111700000Y-14545000D02*
X111700000Y-17205000D01*
X114300000Y-14545000D02*
X111700000Y-14545000D01*
X114300000Y-17205000D02*
X111700000Y-17205000D01*
X114300000Y-14545000D02*
X114300000Y-17205000D01*
X115570000Y-14545000D02*
X116900000Y-14545000D01*
X116900000Y-14545000D02*
X116900000Y-15875000D01*
%TO.C,R1*%
X55340000Y-94080000D02*
X55340000Y-93750000D01*
X48800000Y-94080000D02*
X55340000Y-94080000D01*
X48800000Y-93750000D02*
X48800000Y-94080000D01*
X55340000Y-91340000D02*
X55340000Y-91670000D01*
X48800000Y-91340000D02*
X55340000Y-91340000D01*
X48800000Y-91670000D02*
X48800000Y-91340000D01*
%TO.C,R2*%
X27210000Y-54840000D02*
X27210000Y-54510000D01*
X27210000Y-54510000D02*
X33750000Y-54510000D01*
X33750000Y-54510000D02*
X33750000Y-54840000D01*
X27210000Y-56920000D02*
X27210000Y-57250000D01*
X27210000Y-57250000D02*
X33750000Y-57250000D01*
X33750000Y-57250000D02*
X33750000Y-56920000D01*
%TO.C,R3*%
X22320000Y-63600000D02*
X22320000Y-63270000D01*
X15780000Y-63600000D02*
X22320000Y-63600000D01*
X15780000Y-63270000D02*
X15780000Y-63600000D01*
X22320000Y-60860000D02*
X22320000Y-61190000D01*
X15780000Y-60860000D02*
X22320000Y-60860000D01*
X15780000Y-61190000D02*
X15780000Y-60860000D01*
%TO.C,R4*%
X137890000Y-148690000D02*
X137890000Y-148360000D01*
X131350000Y-148690000D02*
X137890000Y-148690000D01*
X131350000Y-148360000D02*
X131350000Y-148690000D01*
X137890000Y-145950000D02*
X137890000Y-146280000D01*
X131350000Y-145950000D02*
X137890000Y-145950000D01*
X131350000Y-146280000D02*
X131350000Y-145950000D01*
%TO.C,R5*%
X156940000Y-148690000D02*
X156940000Y-148360000D01*
X150400000Y-148690000D02*
X156940000Y-148690000D01*
X150400000Y-148360000D02*
X150400000Y-148690000D01*
X156940000Y-145950000D02*
X156940000Y-146280000D01*
X150400000Y-145950000D02*
X156940000Y-145950000D01*
X150400000Y-146280000D02*
X150400000Y-145950000D01*
%TO.C,R6*%
X193770000Y-142010000D02*
X193770000Y-142340000D01*
X193770000Y-142340000D02*
X187230000Y-142340000D01*
X187230000Y-142340000D02*
X187230000Y-142010000D01*
X193770000Y-139930000D02*
X193770000Y-139600000D01*
X193770000Y-139600000D02*
X187230000Y-139600000D01*
X187230000Y-139600000D02*
X187230000Y-139930000D01*
%TO.C,R7*%
X166910000Y-139600000D02*
X166910000Y-139930000D01*
X173450000Y-139600000D02*
X166910000Y-139600000D01*
X173450000Y-139930000D02*
X173450000Y-139600000D01*
X166910000Y-142340000D02*
X166910000Y-142010000D01*
X173450000Y-142340000D02*
X166910000Y-142340000D01*
X173450000Y-142010000D02*
X173450000Y-142340000D01*
%TO.C,R8*%
X101975001Y-146384999D02*
X101645001Y-146384999D01*
X101645001Y-146384999D02*
X101645001Y-139844999D01*
X101645001Y-139844999D02*
X101975001Y-139844999D01*
X104055001Y-146384999D02*
X104385001Y-146384999D01*
X104385001Y-146384999D02*
X104385001Y-139844999D01*
X104385001Y-139844999D02*
X104055001Y-139844999D01*
%TO.C,R9*%
X73890000Y-145510000D02*
X73560000Y-145510000D01*
X73560000Y-145510000D02*
X73560000Y-138970000D01*
X73560000Y-138970000D02*
X73890000Y-138970000D01*
X75970000Y-145510000D02*
X76300000Y-145510000D01*
X76300000Y-145510000D02*
X76300000Y-138970000D01*
X76300000Y-138970000D02*
X75970000Y-138970000D01*
%TO.C,R10*%
X104385001Y-150614999D02*
X104055001Y-150614999D01*
X104385001Y-157154999D02*
X104385001Y-150614999D01*
X104055001Y-157154999D02*
X104385001Y-157154999D01*
X101645001Y-150614999D02*
X101975001Y-150614999D01*
X101645001Y-157154999D02*
X101645001Y-150614999D01*
X101975001Y-157154999D02*
X101645001Y-157154999D01*
%TO.C,R11*%
X76300000Y-152940000D02*
X75970000Y-152940000D01*
X76300000Y-159480000D02*
X76300000Y-152940000D01*
X75970000Y-159480000D02*
X76300000Y-159480000D01*
X73560000Y-152940000D02*
X73890000Y-152940000D01*
X73560000Y-159480000D02*
X73560000Y-152940000D01*
X73890000Y-159480000D02*
X73560000Y-159480000D01*
%TO.C,R12*%
X48030000Y-18955000D02*
X48360000Y-18955000D01*
X48360000Y-18955000D02*
X48360000Y-25495000D01*
X48360000Y-25495000D02*
X48030000Y-25495000D01*
X45950000Y-18955000D02*
X45620000Y-18955000D01*
X45620000Y-18955000D02*
X45620000Y-25495000D01*
X45620000Y-25495000D02*
X45950000Y-25495000D01*
%TO.C,R13*%
X201830000Y-25495000D02*
X202160000Y-25495000D01*
X201830000Y-18955000D02*
X201830000Y-25495000D01*
X202160000Y-18955000D02*
X201830000Y-18955000D01*
X204570000Y-25495000D02*
X204240000Y-25495000D01*
X204570000Y-18955000D02*
X204570000Y-25495000D01*
X204240000Y-18955000D02*
X204570000Y-18955000D01*
%TO.C,R14*%
X185190000Y-18955000D02*
X185520000Y-18955000D01*
X185520000Y-18955000D02*
X185520000Y-25495000D01*
X185520000Y-25495000D02*
X185190000Y-25495000D01*
X183110000Y-18955000D02*
X182780000Y-18955000D01*
X182780000Y-18955000D02*
X182780000Y-25495000D01*
X182780000Y-25495000D02*
X183110000Y-25495000D01*
%TO.C,R15*%
X24030000Y-26765000D02*
X24360000Y-26765000D01*
X24030000Y-20225000D02*
X24030000Y-26765000D01*
X24360000Y-20225000D02*
X24030000Y-20225000D01*
X26770000Y-26765000D02*
X26440000Y-26765000D01*
X26770000Y-20225000D02*
X26770000Y-26765000D01*
X26440000Y-20225000D02*
X26770000Y-20225000D01*
%TO.C,R16*%
X147090000Y-18955000D02*
X147420000Y-18955000D01*
X147420000Y-18955000D02*
X147420000Y-25495000D01*
X147420000Y-25495000D02*
X147090000Y-25495000D01*
X145010000Y-18955000D02*
X144680000Y-18955000D01*
X144680000Y-18955000D02*
X144680000Y-25495000D01*
X144680000Y-25495000D02*
X145010000Y-25495000D01*
%TO.C,R17*%
X163730000Y-25495000D02*
X164060000Y-25495000D01*
X163730000Y-18955000D02*
X163730000Y-25495000D01*
X164060000Y-18955000D02*
X163730000Y-18955000D01*
X166470000Y-25495000D02*
X166140000Y-25495000D01*
X166470000Y-18955000D02*
X166470000Y-25495000D01*
X166140000Y-18955000D02*
X166470000Y-18955000D01*
%TO.C,R18*%
X84050000Y-26765000D02*
X83720000Y-26765000D01*
X83720000Y-26765000D02*
X83720000Y-20225000D01*
X83720000Y-20225000D02*
X84050000Y-20225000D01*
X86130000Y-26765000D02*
X86460000Y-26765000D01*
X86460000Y-26765000D02*
X86460000Y-20225000D01*
X86460000Y-20225000D02*
X86130000Y-20225000D01*
%TO.C,R19*%
X64670000Y-26765000D02*
X65000000Y-26765000D01*
X64670000Y-20225000D02*
X64670000Y-26765000D01*
X65000000Y-20225000D02*
X64670000Y-20225000D01*
X67410000Y-26765000D02*
X67080000Y-26765000D01*
X67410000Y-20225000D02*
X67410000Y-26765000D01*
X67080000Y-20225000D02*
X67410000Y-20225000D01*
%TO.C,R20*%
X126770000Y-18955000D02*
X127100000Y-18955000D01*
X127100000Y-18955000D02*
X127100000Y-25495000D01*
X127100000Y-25495000D02*
X126770000Y-25495000D01*
X124690000Y-18955000D02*
X124360000Y-18955000D01*
X124360000Y-18955000D02*
X124360000Y-25495000D01*
X124360000Y-25495000D02*
X124690000Y-25495000D01*
%TO.C,R21*%
X106450000Y-20225000D02*
X106780000Y-20225000D01*
X106780000Y-20225000D02*
X106780000Y-26765000D01*
X106780000Y-26765000D02*
X106450000Y-26765000D01*
X104370000Y-20225000D02*
X104040000Y-20225000D01*
X104040000Y-20225000D02*
X104040000Y-26765000D01*
X104040000Y-26765000D02*
X104370000Y-26765000D01*
%TO.C,SW1*%
X19685000Y-98425000D02*
X19685000Y-84455000D01*
X33655000Y-98425000D02*
X19685000Y-98425000D01*
X33655000Y-84455000D02*
X33655000Y-98425000D01*
X19685000Y-84455000D02*
X33655000Y-84455000D01*
%TO.C,U1*%
X66010000Y-68230000D02*
X64670000Y-68230000D01*
X66010000Y-67280000D02*
X66010000Y-68230000D01*
X66960000Y-67280000D02*
X66010000Y-67280000D01*
X76230000Y-67280000D02*
X76230000Y-68230000D01*
X75280000Y-67280000D02*
X76230000Y-67280000D01*
X66010000Y-77500000D02*
X66010000Y-76550000D01*
X66960000Y-77500000D02*
X66010000Y-77500000D01*
X76230000Y-77500000D02*
X76230000Y-76550000D01*
X75280000Y-77500000D02*
X76230000Y-77500000D01*
D11*
%TO.C,U2*%
X34795000Y-70585000D02*
X34495000Y-70585000D01*
X34795000Y-70210000D02*
X34795000Y-70585000D01*
X34795000Y-64035000D02*
X34395000Y-64035000D01*
X34795000Y-64535000D02*
X34795000Y-64035000D01*
X31245000Y-70585000D02*
X31245000Y-70135000D01*
X31720000Y-70585000D02*
X31245000Y-70585000D01*
X31245000Y-64335000D02*
X31050000Y-64335000D01*
X31570000Y-64035000D02*
X31245000Y-64335000D01*
X32045000Y-64035000D02*
X31570000Y-64035000D01*
%TO.C,C1*%
D12*
X63522142Y-72556666D02*
X63569761Y-72604285D01*
X63617380Y-72747142D01*
X63617380Y-72842380D01*
X63569761Y-72985238D01*
X63474523Y-73080476D01*
X63379285Y-73128095D01*
X63188809Y-73175714D01*
X63045952Y-73175714D01*
X62855476Y-73128095D01*
X62760238Y-73080476D01*
X62665000Y-72985238D01*
X62617380Y-72842380D01*
X62617380Y-72747142D01*
X62665000Y-72604285D01*
X62712619Y-72556666D01*
X63617380Y-71604285D02*
X63617380Y-72175714D01*
X63617380Y-71890000D02*
X62617380Y-71890000D01*
X62760238Y-71985238D01*
X62855476Y-72080476D01*
X62903095Y-72175714D01*
%TO.C,C2*%
X81797142Y-68746666D02*
X81844761Y-68794285D01*
X81892380Y-68937142D01*
X81892380Y-69032380D01*
X81844761Y-69175238D01*
X81749523Y-69270476D01*
X81654285Y-69318095D01*
X81463809Y-69365714D01*
X81320952Y-69365714D01*
X81130476Y-69318095D01*
X81035238Y-69270476D01*
X80940000Y-69175238D01*
X80892380Y-69032380D01*
X80892380Y-68937142D01*
X80940000Y-68794285D01*
X80987619Y-68746666D01*
X80987619Y-68365714D02*
X80940000Y-68318095D01*
X80892380Y-68222857D01*
X80892380Y-67984761D01*
X80940000Y-67889523D01*
X80987619Y-67841904D01*
X81082857Y-67794285D01*
X81178095Y-67794285D01*
X81320952Y-67841904D01*
X81892380Y-68413333D01*
X81892380Y-67794285D01*
%TO.C,C3*%
X67638333Y-83067142D02*
X67590714Y-83114761D01*
X67447857Y-83162380D01*
X67352619Y-83162380D01*
X67209761Y-83114761D01*
X67114523Y-83019523D01*
X67066904Y-82924285D01*
X67019285Y-82733809D01*
X67019285Y-82590952D01*
X67066904Y-82400476D01*
X67114523Y-82305238D01*
X67209761Y-82210000D01*
X67352619Y-82162380D01*
X67447857Y-82162380D01*
X67590714Y-82210000D01*
X67638333Y-82257619D01*
X67971666Y-82162380D02*
X68590714Y-82162380D01*
X68257380Y-82543333D01*
X68400238Y-82543333D01*
X68495476Y-82590952D01*
X68543095Y-82638571D01*
X68590714Y-82733809D01*
X68590714Y-82971904D01*
X68543095Y-83067142D01*
X68495476Y-83114761D01*
X68400238Y-83162380D01*
X68114523Y-83162380D01*
X68019285Y-83114761D01*
X67971666Y-83067142D01*
%TO.C,C4*%
X66648333Y-62427142D02*
X66600714Y-62474761D01*
X66457857Y-62522380D01*
X66362619Y-62522380D01*
X66219761Y-62474761D01*
X66124523Y-62379523D01*
X66076904Y-62284285D01*
X66029285Y-62093809D01*
X66029285Y-61950952D01*
X66076904Y-61760476D01*
X66124523Y-61665238D01*
X66219761Y-61570000D01*
X66362619Y-61522380D01*
X66457857Y-61522380D01*
X66600714Y-61570000D01*
X66648333Y-61617619D01*
X67505476Y-61855714D02*
X67505476Y-62522380D01*
X67267380Y-61474761D02*
X67029285Y-62189047D01*
X67648333Y-62189047D01*
%TO.C,C5*%
X47507142Y-75096666D02*
X47554761Y-75144285D01*
X47602380Y-75287142D01*
X47602380Y-75382380D01*
X47554761Y-75525238D01*
X47459523Y-75620476D01*
X47364285Y-75668095D01*
X47173809Y-75715714D01*
X47030952Y-75715714D01*
X46840476Y-75668095D01*
X46745238Y-75620476D01*
X46650000Y-75525238D01*
X46602380Y-75382380D01*
X46602380Y-75287142D01*
X46650000Y-75144285D01*
X46697619Y-75096666D01*
X46602380Y-74191904D02*
X46602380Y-74668095D01*
X47078571Y-74715714D01*
X47030952Y-74668095D01*
X46983333Y-74572857D01*
X46983333Y-74334761D01*
X47030952Y-74239523D01*
X47078571Y-74191904D01*
X47173809Y-74144285D01*
X47411904Y-74144285D01*
X47507142Y-74191904D01*
X47554761Y-74239523D01*
X47602380Y-74334761D01*
X47602380Y-74572857D01*
X47554761Y-74668095D01*
X47507142Y-74715714D01*
%TO.C,C6*%
X40837142Y-79681666D02*
X40884761Y-79729285D01*
X40932380Y-79872142D01*
X40932380Y-79967380D01*
X40884761Y-80110238D01*
X40789523Y-80205476D01*
X40694285Y-80253095D01*
X40503809Y-80300714D01*
X40360952Y-80300714D01*
X40170476Y-80253095D01*
X40075238Y-80205476D01*
X39980000Y-80110238D01*
X39932380Y-79967380D01*
X39932380Y-79872142D01*
X39980000Y-79729285D01*
X40027619Y-79681666D01*
X39932380Y-78824523D02*
X39932380Y-79015000D01*
X39980000Y-79110238D01*
X40027619Y-79157857D01*
X40170476Y-79253095D01*
X40360952Y-79300714D01*
X40741904Y-79300714D01*
X40837142Y-79253095D01*
X40884761Y-79205476D01*
X40932380Y-79110238D01*
X40932380Y-78919761D01*
X40884761Y-78824523D01*
X40837142Y-78776904D01*
X40741904Y-78729285D01*
X40503809Y-78729285D01*
X40408571Y-78776904D01*
X40360952Y-78824523D01*
X40313333Y-78919761D01*
X40313333Y-79110238D01*
X40360952Y-79205476D01*
X40408571Y-79253095D01*
X40503809Y-79300714D01*
%TO.C,C7*%
X75538333Y-83067142D02*
X75490714Y-83114761D01*
X75347857Y-83162380D01*
X75252619Y-83162380D01*
X75109761Y-83114761D01*
X75014523Y-83019523D01*
X74966904Y-82924285D01*
X74919285Y-82733809D01*
X74919285Y-82590952D01*
X74966904Y-82400476D01*
X75014523Y-82305238D01*
X75109761Y-82210000D01*
X75252619Y-82162380D01*
X75347857Y-82162380D01*
X75490714Y-82210000D01*
X75538333Y-82257619D01*
X75871666Y-82162380D02*
X76538333Y-82162380D01*
X76109761Y-83162380D01*
%TO.C,C8*%
X64017142Y-66206666D02*
X64064761Y-66254285D01*
X64112380Y-66397142D01*
X64112380Y-66492380D01*
X64064761Y-66635238D01*
X63969523Y-66730476D01*
X63874285Y-66778095D01*
X63683809Y-66825714D01*
X63540952Y-66825714D01*
X63350476Y-66778095D01*
X63255238Y-66730476D01*
X63160000Y-66635238D01*
X63112380Y-66492380D01*
X63112380Y-66397142D01*
X63160000Y-66254285D01*
X63207619Y-66206666D01*
X63540952Y-65635238D02*
X63493333Y-65730476D01*
X63445714Y-65778095D01*
X63350476Y-65825714D01*
X63302857Y-65825714D01*
X63207619Y-65778095D01*
X63160000Y-65730476D01*
X63112380Y-65635238D01*
X63112380Y-65444761D01*
X63160000Y-65349523D01*
X63207619Y-65301904D01*
X63302857Y-65254285D01*
X63350476Y-65254285D01*
X63445714Y-65301904D01*
X63493333Y-65349523D01*
X63540952Y-65444761D01*
X63540952Y-65635238D01*
X63588571Y-65730476D01*
X63636190Y-65778095D01*
X63731428Y-65825714D01*
X63921904Y-65825714D01*
X64017142Y-65778095D01*
X64064761Y-65730476D01*
X64112380Y-65635238D01*
X64112380Y-65444761D01*
X64064761Y-65349523D01*
X64017142Y-65301904D01*
X63921904Y-65254285D01*
X63731428Y-65254285D01*
X63636190Y-65301904D01*
X63588571Y-65349523D01*
X63540952Y-65444761D01*
%TO.C,C9*%
X44647142Y-79681666D02*
X44694761Y-79729285D01*
X44742380Y-79872142D01*
X44742380Y-79967380D01*
X44694761Y-80110238D01*
X44599523Y-80205476D01*
X44504285Y-80253095D01*
X44313809Y-80300714D01*
X44170952Y-80300714D01*
X43980476Y-80253095D01*
X43885238Y-80205476D01*
X43790000Y-80110238D01*
X43742380Y-79967380D01*
X43742380Y-79872142D01*
X43790000Y-79729285D01*
X43837619Y-79681666D01*
X44742380Y-79205476D02*
X44742380Y-79015000D01*
X44694761Y-78919761D01*
X44647142Y-78872142D01*
X44504285Y-78776904D01*
X44313809Y-78729285D01*
X43932857Y-78729285D01*
X43837619Y-78776904D01*
X43790000Y-78824523D01*
X43742380Y-78919761D01*
X43742380Y-79110238D01*
X43790000Y-79205476D01*
X43837619Y-79253095D01*
X43932857Y-79300714D01*
X44170952Y-79300714D01*
X44266190Y-79253095D01*
X44313809Y-79205476D01*
X44361428Y-79110238D01*
X44361428Y-78919761D01*
X44313809Y-78824523D01*
X44266190Y-78776904D01*
X44170952Y-78729285D01*
%TO.C,C10*%
X43697142Y-75572857D02*
X43744761Y-75620476D01*
X43792380Y-75763333D01*
X43792380Y-75858571D01*
X43744761Y-76001428D01*
X43649523Y-76096666D01*
X43554285Y-76144285D01*
X43363809Y-76191904D01*
X43220952Y-76191904D01*
X43030476Y-76144285D01*
X42935238Y-76096666D01*
X42840000Y-76001428D01*
X42792380Y-75858571D01*
X42792380Y-75763333D01*
X42840000Y-75620476D01*
X42887619Y-75572857D01*
X43792380Y-74620476D02*
X43792380Y-75191904D01*
X43792380Y-74906190D02*
X42792380Y-74906190D01*
X42935238Y-75001428D01*
X43030476Y-75096666D01*
X43078095Y-75191904D01*
X42792380Y-74001428D02*
X42792380Y-73906190D01*
X42840000Y-73810952D01*
X42887619Y-73763333D01*
X42982857Y-73715714D01*
X43173333Y-73668095D01*
X43411428Y-73668095D01*
X43601904Y-73715714D01*
X43697142Y-73763333D01*
X43744761Y-73810952D01*
X43792380Y-73906190D01*
X43792380Y-74001428D01*
X43744761Y-74096666D01*
X43697142Y-74144285D01*
X43601904Y-74191904D01*
X43411428Y-74239523D01*
X43173333Y-74239523D01*
X42982857Y-74191904D01*
X42887619Y-74144285D01*
X42840000Y-74096666D01*
X42792380Y-74001428D01*
%TO.C,C11*%
X108137142Y-152562857D02*
X108184761Y-152610476D01*
X108232380Y-152753333D01*
X108232380Y-152848571D01*
X108184761Y-152991428D01*
X108089523Y-153086666D01*
X107994285Y-153134285D01*
X107803809Y-153181904D01*
X107660952Y-153181904D01*
X107470476Y-153134285D01*
X107375238Y-153086666D01*
X107280000Y-152991428D01*
X107232380Y-152848571D01*
X107232380Y-152753333D01*
X107280000Y-152610476D01*
X107327619Y-152562857D01*
X108232380Y-151610476D02*
X108232380Y-152181904D01*
X108232380Y-151896190D02*
X107232380Y-151896190D01*
X107375238Y-151991428D01*
X107470476Y-152086666D01*
X107518095Y-152181904D01*
X108232380Y-150658095D02*
X108232380Y-151229523D01*
X108232380Y-150943809D02*
X107232380Y-150943809D01*
X107375238Y-151039047D01*
X107470476Y-151134285D01*
X107518095Y-151229523D01*
%TO.C,C12*%
X58607142Y-155102857D02*
X58654761Y-155150476D01*
X58702380Y-155293333D01*
X58702380Y-155388571D01*
X58654761Y-155531428D01*
X58559523Y-155626666D01*
X58464285Y-155674285D01*
X58273809Y-155721904D01*
X58130952Y-155721904D01*
X57940476Y-155674285D01*
X57845238Y-155626666D01*
X57750000Y-155531428D01*
X57702380Y-155388571D01*
X57702380Y-155293333D01*
X57750000Y-155150476D01*
X57797619Y-155102857D01*
X58702380Y-154150476D02*
X58702380Y-154721904D01*
X58702380Y-154436190D02*
X57702380Y-154436190D01*
X57845238Y-154531428D01*
X57940476Y-154626666D01*
X57988095Y-154721904D01*
X57797619Y-153769523D02*
X57750000Y-153721904D01*
X57702380Y-153626666D01*
X57702380Y-153388571D01*
X57750000Y-153293333D01*
X57797619Y-153245714D01*
X57892857Y-153198095D01*
X57988095Y-153198095D01*
X58130952Y-153245714D01*
X58702380Y-153817142D01*
X58702380Y-153198095D01*
%TO.C,D1*%
X18311904Y-59022380D02*
X18311904Y-58022380D01*
X18550000Y-58022380D01*
X18692857Y-58070000D01*
X18788095Y-58165238D01*
X18835714Y-58260476D01*
X18883333Y-58450952D01*
X18883333Y-58593809D01*
X18835714Y-58784285D01*
X18788095Y-58879523D01*
X18692857Y-58974761D01*
X18550000Y-59022380D01*
X18311904Y-59022380D01*
X19835714Y-59022380D02*
X19264285Y-59022380D01*
X19550000Y-59022380D02*
X19550000Y-58022380D01*
X19454761Y-58165238D01*
X19359523Y-58260476D01*
X19264285Y-58308095D01*
%TO.C,D2*%
X28657380Y-76963095D02*
X27657380Y-76963095D01*
X27657380Y-76725000D01*
X27705000Y-76582142D01*
X27800238Y-76486904D01*
X27895476Y-76439285D01*
X28085952Y-76391666D01*
X28228809Y-76391666D01*
X28419285Y-76439285D01*
X28514523Y-76486904D01*
X28609761Y-76582142D01*
X28657380Y-76725000D01*
X28657380Y-76963095D01*
X27752619Y-76010714D02*
X27705000Y-75963095D01*
X27657380Y-75867857D01*
X27657380Y-75629761D01*
X27705000Y-75534523D01*
X27752619Y-75486904D01*
X27847857Y-75439285D01*
X27943095Y-75439285D01*
X28085952Y-75486904D01*
X28657380Y-76058333D01*
X28657380Y-75439285D01*
%TO.C,FB1*%
X50888571Y-77033333D02*
X50888571Y-77366666D01*
X51412380Y-77366666D02*
X50412380Y-77366666D01*
X50412380Y-76890476D01*
X50888571Y-76176190D02*
X50936190Y-76033333D01*
X50983809Y-75985714D01*
X51079047Y-75938095D01*
X51221904Y-75938095D01*
X51317142Y-75985714D01*
X51364761Y-76033333D01*
X51412380Y-76128571D01*
X51412380Y-76509523D01*
X50412380Y-76509523D01*
X50412380Y-76176190D01*
X50460000Y-76080952D01*
X50507619Y-76033333D01*
X50602857Y-75985714D01*
X50698095Y-75985714D01*
X50793333Y-76033333D01*
X50840952Y-76080952D01*
X50888571Y-76176190D01*
X50888571Y-76509523D01*
X51412380Y-74985714D02*
X51412380Y-75557142D01*
X51412380Y-75271428D02*
X50412380Y-75271428D01*
X50555238Y-75366666D01*
X50650476Y-75461904D01*
X50698095Y-75557142D01*
%TO.C,J1*%
X96182380Y-62563333D02*
X96896666Y-62563333D01*
X97039523Y-62610952D01*
X97134761Y-62706190D01*
X97182380Y-62849047D01*
X97182380Y-62944285D01*
X97182380Y-61563333D02*
X97182380Y-62134761D01*
X97182380Y-61849047D02*
X96182380Y-61849047D01*
X96325238Y-61944285D01*
X96420476Y-62039523D01*
X96468095Y-62134761D01*
%TO.C,J2*%
X19372380Y-72723333D02*
X20086666Y-72723333D01*
X20229523Y-72770952D01*
X20324761Y-72866190D01*
X20372380Y-73009047D01*
X20372380Y-73104285D01*
X19467619Y-72294761D02*
X19420000Y-72247142D01*
X19372380Y-72151904D01*
X19372380Y-71913809D01*
X19420000Y-71818571D01*
X19467619Y-71770952D01*
X19562857Y-71723333D01*
X19658095Y-71723333D01*
X19800952Y-71770952D01*
X20372380Y-72342380D01*
X20372380Y-71723333D01*
%TO.C,J3*%
X72902380Y-52403333D02*
X73616666Y-52403333D01*
X73759523Y-52450952D01*
X73854761Y-52546190D01*
X73902380Y-52689047D01*
X73902380Y-52784285D01*
X72902380Y-52022380D02*
X72902380Y-51403333D01*
X73283333Y-51736666D01*
X73283333Y-51593809D01*
X73330952Y-51498571D01*
X73378571Y-51450952D01*
X73473809Y-51403333D01*
X73711904Y-51403333D01*
X73807142Y-51450952D01*
X73854761Y-51498571D01*
X73902380Y-51593809D01*
X73902380Y-51879523D01*
X73854761Y-51974761D01*
X73807142Y-52022380D01*
%TO.C,J4*%
X140890666Y-152106380D02*
X140890666Y-152820666D01*
X140843047Y-152963523D01*
X140747809Y-153058761D01*
X140604952Y-153106380D01*
X140509714Y-153106380D01*
X141795428Y-152439714D02*
X141795428Y-153106380D01*
X141557333Y-152058761D02*
X141319238Y-152773047D01*
X141938285Y-152773047D01*
%TO.C,J5*%
X198040666Y-152106380D02*
X198040666Y-152820666D01*
X197993047Y-152963523D01*
X197897809Y-153058761D01*
X197754952Y-153106380D01*
X197659714Y-153106380D01*
X198993047Y-152106380D02*
X198516857Y-152106380D01*
X198469238Y-152582571D01*
X198516857Y-152534952D01*
X198612095Y-152487333D01*
X198850190Y-152487333D01*
X198945428Y-152534952D01*
X198993047Y-152582571D01*
X199040666Y-152677809D01*
X199040666Y-152915904D01*
X198993047Y-153011142D01*
X198945428Y-153058761D01*
X198850190Y-153106380D01*
X198612095Y-153106380D01*
X198516857Y-153058761D01*
X198469238Y-153011142D01*
%TO.C,J6*%
X175942666Y-166584380D02*
X175942666Y-167298666D01*
X175895047Y-167441523D01*
X175799809Y-167536761D01*
X175656952Y-167584380D01*
X175561714Y-167584380D01*
X176847428Y-166584380D02*
X176656952Y-166584380D01*
X176561714Y-166632000D01*
X176514095Y-166679619D01*
X176418857Y-166822476D01*
X176371238Y-167012952D01*
X176371238Y-167393904D01*
X176418857Y-167489142D01*
X176466476Y-167536761D01*
X176561714Y-167584380D01*
X176752190Y-167584380D01*
X176847428Y-167536761D01*
X176895047Y-167489142D01*
X176942666Y-167393904D01*
X176942666Y-167155809D01*
X176895047Y-167060571D01*
X176847428Y-167012952D01*
X176752190Y-166965333D01*
X176561714Y-166965333D01*
X176466476Y-167012952D01*
X176418857Y-167060571D01*
X176371238Y-167155809D01*
%TO.C,J7*%
X205406666Y-61892380D02*
X205406666Y-62606666D01*
X205359047Y-62749523D01*
X205263809Y-62844761D01*
X205120952Y-62892380D01*
X205025714Y-62892380D01*
X205787619Y-61892380D02*
X206454285Y-61892380D01*
X206025714Y-62892380D01*
%TO.C,J8*%
X190166666Y-61892380D02*
X190166666Y-62606666D01*
X190119047Y-62749523D01*
X190023809Y-62844761D01*
X189880952Y-62892380D01*
X189785714Y-62892380D01*
X190785714Y-62320952D02*
X190690476Y-62273333D01*
X190642857Y-62225714D01*
X190595238Y-62130476D01*
X190595238Y-62082857D01*
X190642857Y-61987619D01*
X190690476Y-61940000D01*
X190785714Y-61892380D01*
X190976190Y-61892380D01*
X191071428Y-61940000D01*
X191119047Y-61987619D01*
X191166666Y-62082857D01*
X191166666Y-62130476D01*
X191119047Y-62225714D01*
X191071428Y-62273333D01*
X190976190Y-62320952D01*
X190785714Y-62320952D01*
X190690476Y-62368571D01*
X190642857Y-62416190D01*
X190595238Y-62511428D01*
X190595238Y-62701904D01*
X190642857Y-62797142D01*
X190690476Y-62844761D01*
X190785714Y-62892380D01*
X190976190Y-62892380D01*
X191071428Y-62844761D01*
X191119047Y-62797142D01*
X191166666Y-62701904D01*
X191166666Y-62511428D01*
X191119047Y-62416190D01*
X191071428Y-62368571D01*
X190976190Y-62320952D01*
%TO.C,J9*%
X164766666Y-61892380D02*
X164766666Y-62606666D01*
X164719047Y-62749523D01*
X164623809Y-62844761D01*
X164480952Y-62892380D01*
X164385714Y-62892380D01*
X165290476Y-62892380D02*
X165480952Y-62892380D01*
X165576190Y-62844761D01*
X165623809Y-62797142D01*
X165719047Y-62654285D01*
X165766666Y-62463809D01*
X165766666Y-62082857D01*
X165719047Y-61987619D01*
X165671428Y-61940000D01*
X165576190Y-61892380D01*
X165385714Y-61892380D01*
X165290476Y-61940000D01*
X165242857Y-61987619D01*
X165195238Y-62082857D01*
X165195238Y-62320952D01*
X165242857Y-62416190D01*
X165290476Y-62463809D01*
X165385714Y-62511428D01*
X165576190Y-62511428D01*
X165671428Y-62463809D01*
X165719047Y-62416190D01*
X165766666Y-62320952D01*
%TO.C,J10*%
X37812380Y-131509523D02*
X38526666Y-131509523D01*
X38669523Y-131557142D01*
X38764761Y-131652380D01*
X38812380Y-131795238D01*
X38812380Y-131890476D01*
X38812380Y-130509523D02*
X38812380Y-131080952D01*
X38812380Y-130795238D02*
X37812380Y-130795238D01*
X37955238Y-130890476D01*
X38050476Y-130985714D01*
X38098095Y-131080952D01*
X37812380Y-129890476D02*
X37812380Y-129795238D01*
X37860000Y-129700000D01*
X37907619Y-129652380D01*
X38002857Y-129604761D01*
X38193333Y-129557142D01*
X38431428Y-129557142D01*
X38621904Y-129604761D01*
X38717142Y-129652380D01*
X38764761Y-129700000D01*
X38812380Y-129795238D01*
X38812380Y-129890476D01*
X38764761Y-129985714D01*
X38717142Y-130033333D01*
X38621904Y-130080952D01*
X38431428Y-130128571D01*
X38193333Y-130128571D01*
X38002857Y-130080952D01*
X37907619Y-130033333D01*
X37860000Y-129985714D01*
X37812380Y-129890476D01*
%TO.C,J11*%
X85602380Y-150669523D02*
X86316666Y-150669523D01*
X86459523Y-150717142D01*
X86554761Y-150812380D01*
X86602380Y-150955238D01*
X86602380Y-151050476D01*
X86602380Y-149669523D02*
X86602380Y-150240952D01*
X86602380Y-149955238D02*
X85602380Y-149955238D01*
X85745238Y-150050476D01*
X85840476Y-150145714D01*
X85888095Y-150240952D01*
X86602380Y-148717142D02*
X86602380Y-149288571D01*
X86602380Y-149002857D02*
X85602380Y-149002857D01*
X85745238Y-149098095D01*
X85840476Y-149193333D01*
X85888095Y-149288571D01*
%TO.C,J12*%
X88090476Y-162782380D02*
X88090476Y-163496666D01*
X88042857Y-163639523D01*
X87947619Y-163734761D01*
X87804761Y-163782380D01*
X87709523Y-163782380D01*
X89090476Y-163782380D02*
X88519047Y-163782380D01*
X88804761Y-163782380D02*
X88804761Y-162782380D01*
X88709523Y-162925238D01*
X88614285Y-163020476D01*
X88519047Y-163068095D01*
X89471428Y-162877619D02*
X89519047Y-162830000D01*
X89614285Y-162782380D01*
X89852380Y-162782380D01*
X89947619Y-162830000D01*
X89995238Y-162877619D01*
X90042857Y-162972857D01*
X90042857Y-163068095D01*
X89995238Y-163210952D01*
X89423809Y-163782380D01*
X90042857Y-163782380D01*
%TO.C,J13*%
X54340477Y-25597381D02*
X54340477Y-26311667D01*
X54292858Y-26454524D01*
X54197620Y-26549762D01*
X54054762Y-26597381D01*
X53959524Y-26597381D01*
X55340477Y-26597381D02*
X54769048Y-26597381D01*
X55054762Y-26597381D02*
X55054762Y-25597381D01*
X54959524Y-25740239D01*
X54864286Y-25835477D01*
X54769048Y-25883096D01*
X55673810Y-25597381D02*
X56292858Y-25597381D01*
X55959524Y-25978334D01*
X56102381Y-25978334D01*
X56197620Y-26025953D01*
X56245239Y-26073572D01*
X56292858Y-26168810D01*
X56292858Y-26406905D01*
X56245239Y-26502143D01*
X56197620Y-26549762D01*
X56102381Y-26597381D01*
X55816667Y-26597381D01*
X55721429Y-26549762D01*
X55673810Y-26502143D01*
%TO.C,J14*%
X57662380Y-16684523D02*
X58376666Y-16684523D01*
X58519523Y-16732142D01*
X58614761Y-16827380D01*
X58662380Y-16970238D01*
X58662380Y-17065476D01*
X58662380Y-15684523D02*
X58662380Y-16255952D01*
X58662380Y-15970238D02*
X57662380Y-15970238D01*
X57805238Y-16065476D01*
X57900476Y-16160714D01*
X57948095Y-16255952D01*
X57995714Y-14827380D02*
X58662380Y-14827380D01*
X57614761Y-15065476D02*
X58329047Y-15303571D01*
X58329047Y-14684523D01*
%TO.C,J15*%
X210740477Y-26377381D02*
X210740477Y-27091667D01*
X210692858Y-27234524D01*
X210597620Y-27329762D01*
X210454762Y-27377381D01*
X210359524Y-27377381D01*
X211740477Y-27377381D02*
X211169048Y-27377381D01*
X211454762Y-27377381D02*
X211454762Y-26377381D01*
X211359524Y-26520239D01*
X211264286Y-26615477D01*
X211169048Y-26663096D01*
X212645239Y-26377381D02*
X212169048Y-26377381D01*
X212121429Y-26853572D01*
X212169048Y-26805953D01*
X212264286Y-26758334D01*
X212502381Y-26758334D01*
X212597620Y-26805953D01*
X212645239Y-26853572D01*
X212692858Y-26948810D01*
X212692858Y-27186905D01*
X212645239Y-27282143D01*
X212597620Y-27329762D01*
X212502381Y-27377381D01*
X212264286Y-27377381D01*
X212169048Y-27329762D01*
X212121429Y-27282143D01*
%TO.C,J16*%
X215142380Y-16684523D02*
X215856666Y-16684523D01*
X215999523Y-16732142D01*
X216094761Y-16827380D01*
X216142380Y-16970238D01*
X216142380Y-17065476D01*
X216142380Y-15684523D02*
X216142380Y-16255952D01*
X216142380Y-15970238D02*
X215142380Y-15970238D01*
X215285238Y-16065476D01*
X215380476Y-16160714D01*
X215428095Y-16255952D01*
X215142380Y-14827380D02*
X215142380Y-15017857D01*
X215190000Y-15113095D01*
X215237619Y-15160714D01*
X215380476Y-15255952D01*
X215570952Y-15303571D01*
X215951904Y-15303571D01*
X216047142Y-15255952D01*
X216094761Y-15208333D01*
X216142380Y-15113095D01*
X216142380Y-14922619D01*
X216094761Y-14827380D01*
X216047142Y-14779761D01*
X215951904Y-14732142D01*
X215713809Y-14732142D01*
X215618571Y-14779761D01*
X215570952Y-14827380D01*
X215523333Y-14922619D01*
X215523333Y-15113095D01*
X215570952Y-15208333D01*
X215618571Y-15255952D01*
X215713809Y-15303571D01*
%TO.C,J17*%
X192210477Y-26287381D02*
X192210477Y-27001667D01*
X192162858Y-27144524D01*
X192067620Y-27239762D01*
X191924762Y-27287381D01*
X191829524Y-27287381D01*
X193210477Y-27287381D02*
X192639048Y-27287381D01*
X192924762Y-27287381D02*
X192924762Y-26287381D01*
X192829524Y-26430239D01*
X192734286Y-26525477D01*
X192639048Y-26573096D01*
X193543810Y-26287381D02*
X194210477Y-26287381D01*
X193781905Y-27287381D01*
%TO.C,J18*%
X196092380Y-16684523D02*
X196806666Y-16684523D01*
X196949523Y-16732142D01*
X197044761Y-16827380D01*
X197092380Y-16970238D01*
X197092380Y-17065476D01*
X197092380Y-15684523D02*
X197092380Y-16255952D01*
X197092380Y-15970238D02*
X196092380Y-15970238D01*
X196235238Y-16065476D01*
X196330476Y-16160714D01*
X196378095Y-16255952D01*
X196520952Y-15113095D02*
X196473333Y-15208333D01*
X196425714Y-15255952D01*
X196330476Y-15303571D01*
X196282857Y-15303571D01*
X196187619Y-15255952D01*
X196140000Y-15208333D01*
X196092380Y-15113095D01*
X196092380Y-14922619D01*
X196140000Y-14827380D01*
X196187619Y-14779761D01*
X196282857Y-14732142D01*
X196330476Y-14732142D01*
X196425714Y-14779761D01*
X196473333Y-14827380D01*
X196520952Y-14922619D01*
X196520952Y-15113095D01*
X196568571Y-15208333D01*
X196616190Y-15255952D01*
X196711428Y-15303571D01*
X196901904Y-15303571D01*
X196997142Y-15255952D01*
X197044761Y-15208333D01*
X197092380Y-15113095D01*
X197092380Y-14922619D01*
X197044761Y-14827380D01*
X196997142Y-14779761D01*
X196901904Y-14732142D01*
X196711428Y-14732142D01*
X196616190Y-14779761D01*
X196568571Y-14827380D01*
X196520952Y-14922619D01*
%TO.C,J19*%
X34890477Y-25597381D02*
X34890477Y-26311667D01*
X34842858Y-26454524D01*
X34747620Y-26549762D01*
X34604762Y-26597381D01*
X34509524Y-26597381D01*
X35890477Y-26597381D02*
X35319048Y-26597381D01*
X35604762Y-26597381D02*
X35604762Y-25597381D01*
X35509524Y-25740239D01*
X35414286Y-25835477D01*
X35319048Y-25883096D01*
X36366667Y-26597381D02*
X36557143Y-26597381D01*
X36652381Y-26549762D01*
X36700001Y-26502143D01*
X36795239Y-26359286D01*
X36842858Y-26168810D01*
X36842858Y-25787858D01*
X36795239Y-25692620D01*
X36747620Y-25645001D01*
X36652381Y-25597381D01*
X36461905Y-25597381D01*
X36366667Y-25645001D01*
X36319048Y-25692620D01*
X36271429Y-25787858D01*
X36271429Y-26025953D01*
X36319048Y-26121191D01*
X36366667Y-26168810D01*
X36461905Y-26216429D01*
X36652381Y-26216429D01*
X36747620Y-26168810D01*
X36795239Y-26121191D01*
X36842858Y-26025953D01*
%TO.C,J20*%
X38612380Y-16684523D02*
X39326666Y-16684523D01*
X39469523Y-16732142D01*
X39564761Y-16827380D01*
X39612380Y-16970238D01*
X39612380Y-17065476D01*
X38707619Y-16255952D02*
X38660000Y-16208333D01*
X38612380Y-16113095D01*
X38612380Y-15875000D01*
X38660000Y-15779761D01*
X38707619Y-15732142D01*
X38802857Y-15684523D01*
X38898095Y-15684523D01*
X39040952Y-15732142D01*
X39612380Y-16303571D01*
X39612380Y-15684523D01*
X38612380Y-15065476D02*
X38612380Y-14970238D01*
X38660000Y-14875000D01*
X38707619Y-14827380D01*
X38802857Y-14779761D01*
X38993333Y-14732142D01*
X39231428Y-14732142D01*
X39421904Y-14779761D01*
X39517142Y-14827380D01*
X39564761Y-14875000D01*
X39612380Y-14970238D01*
X39612380Y-15065476D01*
X39564761Y-15160714D01*
X39517142Y-15208333D01*
X39421904Y-15255952D01*
X39231428Y-15303571D01*
X38993333Y-15303571D01*
X38802857Y-15255952D01*
X38707619Y-15208333D01*
X38660000Y-15160714D01*
X38612380Y-15065476D01*
%TO.C,J21*%
X152860476Y-25237380D02*
X152860476Y-25951666D01*
X152812857Y-26094523D01*
X152717619Y-26189761D01*
X152574761Y-26237380D01*
X152479523Y-26237380D01*
X153289047Y-25332619D02*
X153336666Y-25285000D01*
X153431904Y-25237380D01*
X153670000Y-25237380D01*
X153765238Y-25285000D01*
X153812857Y-25332619D01*
X153860476Y-25427857D01*
X153860476Y-25523095D01*
X153812857Y-25665952D01*
X153241428Y-26237380D01*
X153860476Y-26237380D01*
X154812857Y-26237380D02*
X154241428Y-26237380D01*
X154527142Y-26237380D02*
X154527142Y-25237380D01*
X154431904Y-25380238D01*
X154336666Y-25475476D01*
X154241428Y-25523095D01*
%TO.C,J22*%
X155452380Y-15414523D02*
X156166666Y-15414523D01*
X156309523Y-15462142D01*
X156404761Y-15557380D01*
X156452380Y-15700238D01*
X156452380Y-15795476D01*
X155547619Y-14985952D02*
X155500000Y-14938333D01*
X155452380Y-14843095D01*
X155452380Y-14605000D01*
X155500000Y-14509761D01*
X155547619Y-14462142D01*
X155642857Y-14414523D01*
X155738095Y-14414523D01*
X155880952Y-14462142D01*
X156452380Y-15033571D01*
X156452380Y-14414523D01*
X155547619Y-14033571D02*
X155500000Y-13985952D01*
X155452380Y-13890714D01*
X155452380Y-13652619D01*
X155500000Y-13557380D01*
X155547619Y-13509761D01*
X155642857Y-13462142D01*
X155738095Y-13462142D01*
X155880952Y-13509761D01*
X156452380Y-14081190D01*
X156452380Y-13462142D01*
%TO.C,J23*%
X172290477Y-25017381D02*
X172290477Y-25731667D01*
X172242858Y-25874524D01*
X172147620Y-25969762D01*
X172004762Y-26017381D01*
X171909524Y-26017381D01*
X172719048Y-25112620D02*
X172766667Y-25065001D01*
X172861905Y-25017381D01*
X173100001Y-25017381D01*
X173195239Y-25065001D01*
X173242858Y-25112620D01*
X173290477Y-25207858D01*
X173290477Y-25303096D01*
X173242858Y-25445953D01*
X172671429Y-26017381D01*
X173290477Y-26017381D01*
X173623810Y-25017381D02*
X174242858Y-25017381D01*
X173909524Y-25398334D01*
X174052381Y-25398334D01*
X174147620Y-25445953D01*
X174195239Y-25493572D01*
X174242858Y-25588810D01*
X174242858Y-25826905D01*
X174195239Y-25922143D01*
X174147620Y-25969762D01*
X174052381Y-26017381D01*
X173766667Y-26017381D01*
X173671429Y-25969762D01*
X173623810Y-25922143D01*
%TO.C,J24*%
X175772380Y-15414523D02*
X176486666Y-15414523D01*
X176629523Y-15462142D01*
X176724761Y-15557380D01*
X176772380Y-15700238D01*
X176772380Y-15795476D01*
X175867619Y-14985952D02*
X175820000Y-14938333D01*
X175772380Y-14843095D01*
X175772380Y-14605000D01*
X175820000Y-14509761D01*
X175867619Y-14462142D01*
X175962857Y-14414523D01*
X176058095Y-14414523D01*
X176200952Y-14462142D01*
X176772380Y-15033571D01*
X176772380Y-14414523D01*
X176105714Y-13557380D02*
X176772380Y-13557380D01*
X175724761Y-13795476D02*
X176439047Y-14033571D01*
X176439047Y-13414523D01*
%TO.C,J25*%
X93030477Y-25927381D02*
X93030477Y-26641667D01*
X92982858Y-26784524D01*
X92887620Y-26879762D01*
X92744762Y-26927381D01*
X92649524Y-26927381D01*
X93459048Y-26022620D02*
X93506667Y-25975001D01*
X93601905Y-25927381D01*
X93840001Y-25927381D01*
X93935239Y-25975001D01*
X93982858Y-26022620D01*
X94030477Y-26117858D01*
X94030477Y-26213096D01*
X93982858Y-26355953D01*
X93411429Y-26927381D01*
X94030477Y-26927381D01*
X94935239Y-25927381D02*
X94459048Y-25927381D01*
X94411429Y-26403572D01*
X94459048Y-26355953D01*
X94554286Y-26308334D01*
X94792381Y-26308334D01*
X94887620Y-26355953D01*
X94935239Y-26403572D01*
X94982858Y-26498810D01*
X94982858Y-26736905D01*
X94935239Y-26832143D01*
X94887620Y-26879762D01*
X94792381Y-26927381D01*
X94554286Y-26927381D01*
X94459048Y-26879762D01*
X94411429Y-26832143D01*
%TO.C,J26*%
X97032380Y-16684523D02*
X97746666Y-16684523D01*
X97889523Y-16732142D01*
X97984761Y-16827380D01*
X98032380Y-16970238D01*
X98032380Y-17065476D01*
X97127619Y-16255952D02*
X97080000Y-16208333D01*
X97032380Y-16113095D01*
X97032380Y-15875000D01*
X97080000Y-15779761D01*
X97127619Y-15732142D01*
X97222857Y-15684523D01*
X97318095Y-15684523D01*
X97460952Y-15732142D01*
X98032380Y-16303571D01*
X98032380Y-15684523D01*
X97032380Y-14827380D02*
X97032380Y-15017857D01*
X97080000Y-15113095D01*
X97127619Y-15160714D01*
X97270476Y-15255952D01*
X97460952Y-15303571D01*
X97841904Y-15303571D01*
X97937142Y-15255952D01*
X97984761Y-15208333D01*
X98032380Y-15113095D01*
X98032380Y-14922619D01*
X97984761Y-14827380D01*
X97937142Y-14779761D01*
X97841904Y-14732142D01*
X97603809Y-14732142D01*
X97508571Y-14779761D01*
X97460952Y-14827380D01*
X97413333Y-14922619D01*
X97413333Y-15113095D01*
X97460952Y-15208333D01*
X97508571Y-15255952D01*
X97603809Y-15303571D01*
%TO.C,J27*%
X73790477Y-25597381D02*
X73790477Y-26311667D01*
X73742858Y-26454524D01*
X73647620Y-26549762D01*
X73504762Y-26597381D01*
X73409524Y-26597381D01*
X74219048Y-25692620D02*
X74266667Y-25645001D01*
X74361905Y-25597381D01*
X74600001Y-25597381D01*
X74695239Y-25645001D01*
X74742858Y-25692620D01*
X74790477Y-25787858D01*
X74790477Y-25883096D01*
X74742858Y-26025953D01*
X74171429Y-26597381D01*
X74790477Y-26597381D01*
X75123810Y-25597381D02*
X75790477Y-25597381D01*
X75361905Y-26597381D01*
%TO.C,J28*%
X76712380Y-16684523D02*
X77426666Y-16684523D01*
X77569523Y-16732142D01*
X77664761Y-16827380D01*
X77712380Y-16970238D01*
X77712380Y-17065476D01*
X76807619Y-16255952D02*
X76760000Y-16208333D01*
X76712380Y-16113095D01*
X76712380Y-15875000D01*
X76760000Y-15779761D01*
X76807619Y-15732142D01*
X76902857Y-15684523D01*
X76998095Y-15684523D01*
X77140952Y-15732142D01*
X77712380Y-16303571D01*
X77712380Y-15684523D01*
X77140952Y-15113095D02*
X77093333Y-15208333D01*
X77045714Y-15255952D01*
X76950476Y-15303571D01*
X76902857Y-15303571D01*
X76807619Y-15255952D01*
X76760000Y-15208333D01*
X76712380Y-15113095D01*
X76712380Y-14922619D01*
X76760000Y-14827380D01*
X76807619Y-14779761D01*
X76902857Y-14732142D01*
X76950476Y-14732142D01*
X77045714Y-14779761D01*
X77093333Y-14827380D01*
X77140952Y-14922619D01*
X77140952Y-15113095D01*
X77188571Y-15208333D01*
X77236190Y-15255952D01*
X77331428Y-15303571D01*
X77521904Y-15303571D01*
X77617142Y-15255952D01*
X77664761Y-15208333D01*
X77712380Y-15113095D01*
X77712380Y-14922619D01*
X77664761Y-14827380D01*
X77617142Y-14779761D01*
X77521904Y-14732142D01*
X77331428Y-14732142D01*
X77236190Y-14779761D01*
X77188571Y-14827380D01*
X77140952Y-14922619D01*
%TO.C,J29*%
X134190477Y-25347381D02*
X134190477Y-26061667D01*
X134142858Y-26204524D01*
X134047620Y-26299762D01*
X133904762Y-26347381D01*
X133809524Y-26347381D01*
X134619048Y-25442620D02*
X134666667Y-25395001D01*
X134761905Y-25347381D01*
X135000001Y-25347381D01*
X135095239Y-25395001D01*
X135142858Y-25442620D01*
X135190477Y-25537858D01*
X135190477Y-25633096D01*
X135142858Y-25775953D01*
X134571429Y-26347381D01*
X135190477Y-26347381D01*
X135666667Y-26347381D02*
X135857143Y-26347381D01*
X135952381Y-26299762D01*
X136000001Y-26252143D01*
X136095239Y-26109286D01*
X136142858Y-25918810D01*
X136142858Y-25537858D01*
X136095239Y-25442620D01*
X136047620Y-25395001D01*
X135952381Y-25347381D01*
X135761905Y-25347381D01*
X135666667Y-25395001D01*
X135619048Y-25442620D01*
X135571429Y-25537858D01*
X135571429Y-25775953D01*
X135619048Y-25871191D01*
X135666667Y-25918810D01*
X135761905Y-25966429D01*
X135952381Y-25966429D01*
X136047620Y-25918810D01*
X136095239Y-25871191D01*
X136142858Y-25775953D01*
%TO.C,J30*%
X137672380Y-15719524D02*
X138386666Y-15719524D01*
X138529523Y-15767143D01*
X138624761Y-15862381D01*
X138672380Y-16005239D01*
X138672380Y-16100477D01*
X137672380Y-15338572D02*
X137672380Y-14719524D01*
X138053333Y-15052858D01*
X138053333Y-14910001D01*
X138100952Y-14814762D01*
X138148571Y-14767143D01*
X138243809Y-14719524D01*
X138481904Y-14719524D01*
X138577142Y-14767143D01*
X138624761Y-14814762D01*
X138672380Y-14910001D01*
X138672380Y-15195715D01*
X138624761Y-15290953D01*
X138577142Y-15338572D01*
X137672380Y-14100477D02*
X137672380Y-14005239D01*
X137720000Y-13910001D01*
X137767619Y-13862381D01*
X137862857Y-13814762D01*
X138053333Y-13767143D01*
X138291428Y-13767143D01*
X138481904Y-13814762D01*
X138577142Y-13862381D01*
X138624761Y-13910001D01*
X138672380Y-14005239D01*
X138672380Y-14100477D01*
X138624761Y-14195715D01*
X138577142Y-14243334D01*
X138481904Y-14290953D01*
X138291428Y-14338572D01*
X138053333Y-14338572D01*
X137862857Y-14290953D01*
X137767619Y-14243334D01*
X137720000Y-14195715D01*
X137672380Y-14100477D01*
%TO.C,J31*%
X113000477Y-25437381D02*
X113000477Y-26151667D01*
X112952858Y-26294524D01*
X112857620Y-26389762D01*
X112714762Y-26437381D01*
X112619524Y-26437381D01*
X113381429Y-25437381D02*
X114000477Y-25437381D01*
X113667143Y-25818334D01*
X113810001Y-25818334D01*
X113905239Y-25865953D01*
X113952858Y-25913572D01*
X114000477Y-26008810D01*
X114000477Y-26246905D01*
X113952858Y-26342143D01*
X113905239Y-26389762D01*
X113810001Y-26437381D01*
X113524286Y-26437381D01*
X113429048Y-26389762D01*
X113381429Y-26342143D01*
X114952858Y-26437381D02*
X114381429Y-26437381D01*
X114667143Y-26437381D02*
X114667143Y-25437381D01*
X114571905Y-25580239D01*
X114476667Y-25675477D01*
X114381429Y-25723096D01*
%TO.C,J32*%
X117352380Y-16684523D02*
X118066666Y-16684523D01*
X118209523Y-16732142D01*
X118304761Y-16827380D01*
X118352380Y-16970238D01*
X118352380Y-17065476D01*
X117352380Y-16303571D02*
X117352380Y-15684523D01*
X117733333Y-16017857D01*
X117733333Y-15875000D01*
X117780952Y-15779761D01*
X117828571Y-15732142D01*
X117923809Y-15684523D01*
X118161904Y-15684523D01*
X118257142Y-15732142D01*
X118304761Y-15779761D01*
X118352380Y-15875000D01*
X118352380Y-16160714D01*
X118304761Y-16255952D01*
X118257142Y-16303571D01*
X117447619Y-15303571D02*
X117400000Y-15255952D01*
X117352380Y-15160714D01*
X117352380Y-14922619D01*
X117400000Y-14827380D01*
X117447619Y-14779761D01*
X117542857Y-14732142D01*
X117638095Y-14732142D01*
X117780952Y-14779761D01*
X118352380Y-15351190D01*
X118352380Y-14732142D01*
%TO.C,R1*%
X51903333Y-90792380D02*
X51570000Y-90316190D01*
X51331904Y-90792380D02*
X51331904Y-89792380D01*
X51712857Y-89792380D01*
X51808095Y-89840000D01*
X51855714Y-89887619D01*
X51903333Y-89982857D01*
X51903333Y-90125714D01*
X51855714Y-90220952D01*
X51808095Y-90268571D01*
X51712857Y-90316190D01*
X51331904Y-90316190D01*
X52855714Y-90792380D02*
X52284285Y-90792380D01*
X52570000Y-90792380D02*
X52570000Y-89792380D01*
X52474761Y-89935238D01*
X52379523Y-90030476D01*
X52284285Y-90078095D01*
%TO.C,R2*%
X30313333Y-53962380D02*
X29980000Y-53486190D01*
X29741904Y-53962380D02*
X29741904Y-52962380D01*
X30122857Y-52962380D01*
X30218095Y-53010000D01*
X30265714Y-53057619D01*
X30313333Y-53152857D01*
X30313333Y-53295714D01*
X30265714Y-53390952D01*
X30218095Y-53438571D01*
X30122857Y-53486190D01*
X29741904Y-53486190D01*
X30694285Y-53057619D02*
X30741904Y-53010000D01*
X30837142Y-52962380D01*
X31075238Y-52962380D01*
X31170476Y-53010000D01*
X31218095Y-53057619D01*
X31265714Y-53152857D01*
X31265714Y-53248095D01*
X31218095Y-53390952D01*
X30646666Y-53962380D01*
X31265714Y-53962380D01*
%TO.C,R3*%
X18883333Y-60312380D02*
X18550000Y-59836190D01*
X18311904Y-60312380D02*
X18311904Y-59312380D01*
X18692857Y-59312380D01*
X18788095Y-59360000D01*
X18835714Y-59407619D01*
X18883333Y-59502857D01*
X18883333Y-59645714D01*
X18835714Y-59740952D01*
X18788095Y-59788571D01*
X18692857Y-59836190D01*
X18311904Y-59836190D01*
X19216666Y-59312380D02*
X19835714Y-59312380D01*
X19502380Y-59693333D01*
X19645238Y-59693333D01*
X19740476Y-59740952D01*
X19788095Y-59788571D01*
X19835714Y-59883809D01*
X19835714Y-60121904D01*
X19788095Y-60217142D01*
X19740476Y-60264761D01*
X19645238Y-60312380D01*
X19359523Y-60312380D01*
X19264285Y-60264761D01*
X19216666Y-60217142D01*
%TO.C,R4*%
X134453333Y-145402380D02*
X134120000Y-144926190D01*
X133881904Y-145402380D02*
X133881904Y-144402380D01*
X134262857Y-144402380D01*
X134358095Y-144450000D01*
X134405714Y-144497619D01*
X134453333Y-144592857D01*
X134453333Y-144735714D01*
X134405714Y-144830952D01*
X134358095Y-144878571D01*
X134262857Y-144926190D01*
X133881904Y-144926190D01*
X135310476Y-144735714D02*
X135310476Y-145402380D01*
X135072380Y-144354761D02*
X134834285Y-145069047D01*
X135453333Y-145069047D01*
%TO.C,R5*%
X153503333Y-145402380D02*
X153170000Y-144926190D01*
X152931904Y-145402380D02*
X152931904Y-144402380D01*
X153312857Y-144402380D01*
X153408095Y-144450000D01*
X153455714Y-144497619D01*
X153503333Y-144592857D01*
X153503333Y-144735714D01*
X153455714Y-144830952D01*
X153408095Y-144878571D01*
X153312857Y-144926190D01*
X152931904Y-144926190D01*
X154408095Y-144402380D02*
X153931904Y-144402380D01*
X153884285Y-144878571D01*
X153931904Y-144830952D01*
X154027142Y-144783333D01*
X154265238Y-144783333D01*
X154360476Y-144830952D01*
X154408095Y-144878571D01*
X154455714Y-144973809D01*
X154455714Y-145211904D01*
X154408095Y-145307142D01*
X154360476Y-145354761D01*
X154265238Y-145402380D01*
X154027142Y-145402380D01*
X153931904Y-145354761D01*
X153884285Y-145307142D01*
%TO.C,R6*%
X190333333Y-143792380D02*
X190000000Y-143316190D01*
X189761904Y-143792380D02*
X189761904Y-142792380D01*
X190142857Y-142792380D01*
X190238095Y-142840000D01*
X190285714Y-142887619D01*
X190333333Y-142982857D01*
X190333333Y-143125714D01*
X190285714Y-143220952D01*
X190238095Y-143268571D01*
X190142857Y-143316190D01*
X189761904Y-143316190D01*
X191190476Y-142792380D02*
X191000000Y-142792380D01*
X190904761Y-142840000D01*
X190857142Y-142887619D01*
X190761904Y-143030476D01*
X190714285Y-143220952D01*
X190714285Y-143601904D01*
X190761904Y-143697142D01*
X190809523Y-143744761D01*
X190904761Y-143792380D01*
X191095238Y-143792380D01*
X191190476Y-143744761D01*
X191238095Y-143697142D01*
X191285714Y-143601904D01*
X191285714Y-143363809D01*
X191238095Y-143268571D01*
X191190476Y-143220952D01*
X191095238Y-143173333D01*
X190904761Y-143173333D01*
X190809523Y-143220952D01*
X190761904Y-143268571D01*
X190714285Y-143363809D01*
%TO.C,R7*%
X170013333Y-143792380D02*
X169680000Y-143316190D01*
X169441904Y-143792380D02*
X169441904Y-142792380D01*
X169822857Y-142792380D01*
X169918095Y-142840000D01*
X169965714Y-142887619D01*
X170013333Y-142982857D01*
X170013333Y-143125714D01*
X169965714Y-143220952D01*
X169918095Y-143268571D01*
X169822857Y-143316190D01*
X169441904Y-143316190D01*
X170346666Y-142792380D02*
X171013333Y-142792380D01*
X170584761Y-143792380D01*
%TO.C,R8*%
X101097381Y-143281665D02*
X100621191Y-143614999D01*
X101097381Y-143853094D02*
X100097381Y-143853094D01*
X100097381Y-143472141D01*
X100145001Y-143376903D01*
X100192620Y-143329284D01*
X100287858Y-143281665D01*
X100430715Y-143281665D01*
X100525953Y-143329284D01*
X100573572Y-143376903D01*
X100621191Y-143472141D01*
X100621191Y-143853094D01*
X100525953Y-142710237D02*
X100478334Y-142805475D01*
X100430715Y-142853094D01*
X100335477Y-142900713D01*
X100287858Y-142900713D01*
X100192620Y-142853094D01*
X100145001Y-142805475D01*
X100097381Y-142710237D01*
X100097381Y-142519760D01*
X100145001Y-142424522D01*
X100192620Y-142376903D01*
X100287858Y-142329284D01*
X100335477Y-142329284D01*
X100430715Y-142376903D01*
X100478334Y-142424522D01*
X100525953Y-142519760D01*
X100525953Y-142710237D01*
X100573572Y-142805475D01*
X100621191Y-142853094D01*
X100716429Y-142900713D01*
X100906905Y-142900713D01*
X101002143Y-142853094D01*
X101049762Y-142805475D01*
X101097381Y-142710237D01*
X101097381Y-142519760D01*
X101049762Y-142424522D01*
X101002143Y-142376903D01*
X100906905Y-142329284D01*
X100716429Y-142329284D01*
X100621191Y-142376903D01*
X100573572Y-142424522D01*
X100525953Y-142519760D01*
%TO.C,R9*%
X73012380Y-142406666D02*
X72536190Y-142740000D01*
X73012380Y-142978095D02*
X72012380Y-142978095D01*
X72012380Y-142597142D01*
X72060000Y-142501904D01*
X72107619Y-142454285D01*
X72202857Y-142406666D01*
X72345714Y-142406666D01*
X72440952Y-142454285D01*
X72488571Y-142501904D01*
X72536190Y-142597142D01*
X72536190Y-142978095D01*
X73012380Y-141930476D02*
X73012380Y-141740000D01*
X72964761Y-141644761D01*
X72917142Y-141597142D01*
X72774285Y-141501904D01*
X72583809Y-141454285D01*
X72202857Y-141454285D01*
X72107619Y-141501904D01*
X72060000Y-141549523D01*
X72012380Y-141644761D01*
X72012380Y-141835238D01*
X72060000Y-141930476D01*
X72107619Y-141978095D01*
X72202857Y-142025714D01*
X72440952Y-142025714D01*
X72536190Y-141978095D01*
X72583809Y-141930476D01*
X72631428Y-141835238D01*
X72631428Y-141644761D01*
X72583809Y-141549523D01*
X72536190Y-141501904D01*
X72440952Y-141454285D01*
%TO.C,R10*%
X101097381Y-154527856D02*
X100621191Y-154861189D01*
X101097381Y-155099284D02*
X100097381Y-155099284D01*
X100097381Y-154718332D01*
X100145001Y-154623094D01*
X100192620Y-154575475D01*
X100287858Y-154527856D01*
X100430715Y-154527856D01*
X100525953Y-154575475D01*
X100573572Y-154623094D01*
X100621191Y-154718332D01*
X100621191Y-155099284D01*
X101097381Y-153575475D02*
X101097381Y-154146903D01*
X101097381Y-153861189D02*
X100097381Y-153861189D01*
X100240239Y-153956427D01*
X100335477Y-154051665D01*
X100383096Y-154146903D01*
X100097381Y-152956427D02*
X100097381Y-152861189D01*
X100145001Y-152765951D01*
X100192620Y-152718332D01*
X100287858Y-152670713D01*
X100478334Y-152623094D01*
X100716429Y-152623094D01*
X100906905Y-152670713D01*
X101002143Y-152718332D01*
X101049762Y-152765951D01*
X101097381Y-152861189D01*
X101097381Y-152956427D01*
X101049762Y-153051665D01*
X101002143Y-153099284D01*
X100906905Y-153146903D01*
X100716429Y-153194522D01*
X100478334Y-153194522D01*
X100287858Y-153146903D01*
X100192620Y-153099284D01*
X100145001Y-153051665D01*
X100097381Y-152956427D01*
%TO.C,R11*%
X73012380Y-156852857D02*
X72536190Y-157186190D01*
X73012380Y-157424285D02*
X72012380Y-157424285D01*
X72012380Y-157043333D01*
X72060000Y-156948095D01*
X72107619Y-156900476D01*
X72202857Y-156852857D01*
X72345714Y-156852857D01*
X72440952Y-156900476D01*
X72488571Y-156948095D01*
X72536190Y-157043333D01*
X72536190Y-157424285D01*
X73012380Y-155900476D02*
X73012380Y-156471904D01*
X73012380Y-156186190D02*
X72012380Y-156186190D01*
X72155238Y-156281428D01*
X72250476Y-156376666D01*
X72298095Y-156471904D01*
X73012380Y-154948095D02*
X73012380Y-155519523D01*
X73012380Y-155233809D02*
X72012380Y-155233809D01*
X72155238Y-155329047D01*
X72250476Y-155424285D01*
X72298095Y-155519523D01*
%TO.C,R12*%
X49812380Y-22867857D02*
X49336190Y-23201190D01*
X49812380Y-23439285D02*
X48812380Y-23439285D01*
X48812380Y-23058333D01*
X48860000Y-22963095D01*
X48907619Y-22915476D01*
X49002857Y-22867857D01*
X49145714Y-22867857D01*
X49240952Y-22915476D01*
X49288571Y-22963095D01*
X49336190Y-23058333D01*
X49336190Y-23439285D01*
X49812380Y-21915476D02*
X49812380Y-22486904D01*
X49812380Y-22201190D02*
X48812380Y-22201190D01*
X48955238Y-22296428D01*
X49050476Y-22391666D01*
X49098095Y-22486904D01*
X48907619Y-21534523D02*
X48860000Y-21486904D01*
X48812380Y-21391666D01*
X48812380Y-21153571D01*
X48860000Y-21058333D01*
X48907619Y-21010714D01*
X49002857Y-20963095D01*
X49098095Y-20963095D01*
X49240952Y-21010714D01*
X49812380Y-21582142D01*
X49812380Y-20963095D01*
%TO.C,R13*%
X206022380Y-22867857D02*
X205546190Y-23201190D01*
X206022380Y-23439285D02*
X205022380Y-23439285D01*
X205022380Y-23058333D01*
X205070000Y-22963095D01*
X205117619Y-22915476D01*
X205212857Y-22867857D01*
X205355714Y-22867857D01*
X205450952Y-22915476D01*
X205498571Y-22963095D01*
X205546190Y-23058333D01*
X205546190Y-23439285D01*
X206022380Y-21915476D02*
X206022380Y-22486904D01*
X206022380Y-22201190D02*
X205022380Y-22201190D01*
X205165238Y-22296428D01*
X205260476Y-22391666D01*
X205308095Y-22486904D01*
X205022380Y-21582142D02*
X205022380Y-20963095D01*
X205403333Y-21296428D01*
X205403333Y-21153571D01*
X205450952Y-21058333D01*
X205498571Y-21010714D01*
X205593809Y-20963095D01*
X205831904Y-20963095D01*
X205927142Y-21010714D01*
X205974761Y-21058333D01*
X206022380Y-21153571D01*
X206022380Y-21439285D01*
X205974761Y-21534523D01*
X205927142Y-21582142D01*
%TO.C,R14*%
X186972380Y-22867857D02*
X186496190Y-23201190D01*
X186972380Y-23439285D02*
X185972380Y-23439285D01*
X185972380Y-23058333D01*
X186020000Y-22963095D01*
X186067619Y-22915476D01*
X186162857Y-22867857D01*
X186305714Y-22867857D01*
X186400952Y-22915476D01*
X186448571Y-22963095D01*
X186496190Y-23058333D01*
X186496190Y-23439285D01*
X186972380Y-21915476D02*
X186972380Y-22486904D01*
X186972380Y-22201190D02*
X185972380Y-22201190D01*
X186115238Y-22296428D01*
X186210476Y-22391666D01*
X186258095Y-22486904D01*
X186305714Y-21058333D02*
X186972380Y-21058333D01*
X185924761Y-21296428D02*
X186639047Y-21534523D01*
X186639047Y-20915476D01*
%TO.C,R15*%
X28222380Y-24137857D02*
X27746190Y-24471190D01*
X28222380Y-24709285D02*
X27222380Y-24709285D01*
X27222380Y-24328333D01*
X27270000Y-24233095D01*
X27317619Y-24185476D01*
X27412857Y-24137857D01*
X27555714Y-24137857D01*
X27650952Y-24185476D01*
X27698571Y-24233095D01*
X27746190Y-24328333D01*
X27746190Y-24709285D01*
X28222380Y-23185476D02*
X28222380Y-23756904D01*
X28222380Y-23471190D02*
X27222380Y-23471190D01*
X27365238Y-23566428D01*
X27460476Y-23661666D01*
X27508095Y-23756904D01*
X27222380Y-22280714D02*
X27222380Y-22756904D01*
X27698571Y-22804523D01*
X27650952Y-22756904D01*
X27603333Y-22661666D01*
X27603333Y-22423571D01*
X27650952Y-22328333D01*
X27698571Y-22280714D01*
X27793809Y-22233095D01*
X28031904Y-22233095D01*
X28127142Y-22280714D01*
X28174761Y-22328333D01*
X28222380Y-22423571D01*
X28222380Y-22661666D01*
X28174761Y-22756904D01*
X28127142Y-22804523D01*
%TO.C,R16*%
X148872380Y-22867857D02*
X148396190Y-23201190D01*
X148872380Y-23439285D02*
X147872380Y-23439285D01*
X147872380Y-23058333D01*
X147920000Y-22963095D01*
X147967619Y-22915476D01*
X148062857Y-22867857D01*
X148205714Y-22867857D01*
X148300952Y-22915476D01*
X148348571Y-22963095D01*
X148396190Y-23058333D01*
X148396190Y-23439285D01*
X148872380Y-21915476D02*
X148872380Y-22486904D01*
X148872380Y-22201190D02*
X147872380Y-22201190D01*
X148015238Y-22296428D01*
X148110476Y-22391666D01*
X148158095Y-22486904D01*
X147872380Y-21058333D02*
X147872380Y-21248809D01*
X147920000Y-21344047D01*
X147967619Y-21391666D01*
X148110476Y-21486904D01*
X148300952Y-21534523D01*
X148681904Y-21534523D01*
X148777142Y-21486904D01*
X148824761Y-21439285D01*
X148872380Y-21344047D01*
X148872380Y-21153571D01*
X148824761Y-21058333D01*
X148777142Y-21010714D01*
X148681904Y-20963095D01*
X148443809Y-20963095D01*
X148348571Y-21010714D01*
X148300952Y-21058333D01*
X148253333Y-21153571D01*
X148253333Y-21344047D01*
X148300952Y-21439285D01*
X148348571Y-21486904D01*
X148443809Y-21534523D01*
%TO.C,R17*%
X167922380Y-22867857D02*
X167446190Y-23201190D01*
X167922380Y-23439285D02*
X166922380Y-23439285D01*
X166922380Y-23058333D01*
X166970000Y-22963095D01*
X167017619Y-22915476D01*
X167112857Y-22867857D01*
X167255714Y-22867857D01*
X167350952Y-22915476D01*
X167398571Y-22963095D01*
X167446190Y-23058333D01*
X167446190Y-23439285D01*
X167922380Y-21915476D02*
X167922380Y-22486904D01*
X167922380Y-22201190D02*
X166922380Y-22201190D01*
X167065238Y-22296428D01*
X167160476Y-22391666D01*
X167208095Y-22486904D01*
X166922380Y-21582142D02*
X166922380Y-20915476D01*
X167922380Y-21344047D01*
%TO.C,R18*%
X83172380Y-24137857D02*
X82696190Y-24471190D01*
X83172380Y-24709285D02*
X82172380Y-24709285D01*
X82172380Y-24328333D01*
X82220000Y-24233095D01*
X82267619Y-24185476D01*
X82362857Y-24137857D01*
X82505714Y-24137857D01*
X82600952Y-24185476D01*
X82648571Y-24233095D01*
X82696190Y-24328333D01*
X82696190Y-24709285D01*
X83172380Y-23185476D02*
X83172380Y-23756904D01*
X83172380Y-23471190D02*
X82172380Y-23471190D01*
X82315238Y-23566428D01*
X82410476Y-23661666D01*
X82458095Y-23756904D01*
X82600952Y-22614047D02*
X82553333Y-22709285D01*
X82505714Y-22756904D01*
X82410476Y-22804523D01*
X82362857Y-22804523D01*
X82267619Y-22756904D01*
X82220000Y-22709285D01*
X82172380Y-22614047D01*
X82172380Y-22423571D01*
X82220000Y-22328333D01*
X82267619Y-22280714D01*
X82362857Y-22233095D01*
X82410476Y-22233095D01*
X82505714Y-22280714D01*
X82553333Y-22328333D01*
X82600952Y-22423571D01*
X82600952Y-22614047D01*
X82648571Y-22709285D01*
X82696190Y-22756904D01*
X82791428Y-22804523D01*
X82981904Y-22804523D01*
X83077142Y-22756904D01*
X83124761Y-22709285D01*
X83172380Y-22614047D01*
X83172380Y-22423571D01*
X83124761Y-22328333D01*
X83077142Y-22280714D01*
X82981904Y-22233095D01*
X82791428Y-22233095D01*
X82696190Y-22280714D01*
X82648571Y-22328333D01*
X82600952Y-22423571D01*
%TO.C,R19*%
X68862380Y-24137857D02*
X68386190Y-24471190D01*
X68862380Y-24709285D02*
X67862380Y-24709285D01*
X67862380Y-24328333D01*
X67910000Y-24233095D01*
X67957619Y-24185476D01*
X68052857Y-24137857D01*
X68195714Y-24137857D01*
X68290952Y-24185476D01*
X68338571Y-24233095D01*
X68386190Y-24328333D01*
X68386190Y-24709285D01*
X68862380Y-23185476D02*
X68862380Y-23756904D01*
X68862380Y-23471190D02*
X67862380Y-23471190D01*
X68005238Y-23566428D01*
X68100476Y-23661666D01*
X68148095Y-23756904D01*
X68862380Y-22709285D02*
X68862380Y-22518809D01*
X68814761Y-22423571D01*
X68767142Y-22375952D01*
X68624285Y-22280714D01*
X68433809Y-22233095D01*
X68052857Y-22233095D01*
X67957619Y-22280714D01*
X67910000Y-22328333D01*
X67862380Y-22423571D01*
X67862380Y-22614047D01*
X67910000Y-22709285D01*
X67957619Y-22756904D01*
X68052857Y-22804523D01*
X68290952Y-22804523D01*
X68386190Y-22756904D01*
X68433809Y-22709285D01*
X68481428Y-22614047D01*
X68481428Y-22423571D01*
X68433809Y-22328333D01*
X68386190Y-22280714D01*
X68290952Y-22233095D01*
%TO.C,R20*%
X128552380Y-22867857D02*
X128076190Y-23201190D01*
X128552380Y-23439285D02*
X127552380Y-23439285D01*
X127552380Y-23058333D01*
X127600000Y-22963095D01*
X127647619Y-22915476D01*
X127742857Y-22867857D01*
X127885714Y-22867857D01*
X127980952Y-22915476D01*
X128028571Y-22963095D01*
X128076190Y-23058333D01*
X128076190Y-23439285D01*
X127647619Y-22486904D02*
X127600000Y-22439285D01*
X127552380Y-22344047D01*
X127552380Y-22105952D01*
X127600000Y-22010714D01*
X127647619Y-21963095D01*
X127742857Y-21915476D01*
X127838095Y-21915476D01*
X127980952Y-21963095D01*
X128552380Y-22534523D01*
X128552380Y-21915476D01*
X127552380Y-21296428D02*
X127552380Y-21201190D01*
X127600000Y-21105952D01*
X127647619Y-21058333D01*
X127742857Y-21010714D01*
X127933333Y-20963095D01*
X128171428Y-20963095D01*
X128361904Y-21010714D01*
X128457142Y-21058333D01*
X128504761Y-21105952D01*
X128552380Y-21201190D01*
X128552380Y-21296428D01*
X128504761Y-21391666D01*
X128457142Y-21439285D01*
X128361904Y-21486904D01*
X128171428Y-21534523D01*
X127933333Y-21534523D01*
X127742857Y-21486904D01*
X127647619Y-21439285D01*
X127600000Y-21391666D01*
X127552380Y-21296428D01*
%TO.C,R21*%
X108232380Y-24137857D02*
X107756190Y-24471190D01*
X108232380Y-24709285D02*
X107232380Y-24709285D01*
X107232380Y-24328333D01*
X107280000Y-24233095D01*
X107327619Y-24185476D01*
X107422857Y-24137857D01*
X107565714Y-24137857D01*
X107660952Y-24185476D01*
X107708571Y-24233095D01*
X107756190Y-24328333D01*
X107756190Y-24709285D01*
X107327619Y-23756904D02*
X107280000Y-23709285D01*
X107232380Y-23614047D01*
X107232380Y-23375952D01*
X107280000Y-23280714D01*
X107327619Y-23233095D01*
X107422857Y-23185476D01*
X107518095Y-23185476D01*
X107660952Y-23233095D01*
X108232380Y-23804523D01*
X108232380Y-23185476D01*
X108232380Y-22233095D02*
X108232380Y-22804523D01*
X108232380Y-22518809D02*
X107232380Y-22518809D01*
X107375238Y-22614047D01*
X107470476Y-22709285D01*
X107518095Y-22804523D01*
%TO.C,SW1*%
X25336666Y-83970761D02*
X25479523Y-84018380D01*
X25717619Y-84018380D01*
X25812857Y-83970761D01*
X25860476Y-83923142D01*
X25908095Y-83827904D01*
X25908095Y-83732666D01*
X25860476Y-83637428D01*
X25812857Y-83589809D01*
X25717619Y-83542190D01*
X25527142Y-83494571D01*
X25431904Y-83446952D01*
X25384285Y-83399333D01*
X25336666Y-83304095D01*
X25336666Y-83208857D01*
X25384285Y-83113619D01*
X25431904Y-83066000D01*
X25527142Y-83018380D01*
X25765238Y-83018380D01*
X25908095Y-83066000D01*
X26241428Y-83018380D02*
X26479523Y-84018380D01*
X26670000Y-83304095D01*
X26860476Y-84018380D01*
X27098571Y-83018380D01*
X28003333Y-84018380D02*
X27431904Y-84018380D01*
X27717619Y-84018380D02*
X27717619Y-83018380D01*
X27622380Y-83161238D01*
X27527142Y-83256476D01*
X27431904Y-83304095D01*
%TO.C,U1*%
X70358095Y-64442380D02*
X70358095Y-65251904D01*
X70405714Y-65347142D01*
X70453333Y-65394761D01*
X70548571Y-65442380D01*
X70739047Y-65442380D01*
X70834285Y-65394761D01*
X70881904Y-65347142D01*
X70929523Y-65251904D01*
X70929523Y-64442380D01*
X71929523Y-65442380D02*
X71358095Y-65442380D01*
X71643809Y-65442380D02*
X71643809Y-64442380D01*
X71548571Y-64585238D01*
X71453333Y-64680476D01*
X71358095Y-64728095D01*
%TO.C,U2*%
X38572380Y-68071904D02*
X39381904Y-68071904D01*
X39477142Y-68024285D01*
X39524761Y-67976666D01*
X39572380Y-67881428D01*
X39572380Y-67690952D01*
X39524761Y-67595714D01*
X39477142Y-67548095D01*
X39381904Y-67500476D01*
X38572380Y-67500476D01*
X38667619Y-67071904D02*
X38620000Y-67024285D01*
X38572380Y-66929047D01*
X38572380Y-66690952D01*
X38620000Y-66595714D01*
X38667619Y-66548095D01*
X38762857Y-66500476D01*
X38858095Y-66500476D01*
X39000952Y-66548095D01*
X39572380Y-67119523D01*
X39572380Y-66500476D01*
%TO.C,H1*%
X19558095Y-17272380D02*
X19558095Y-16272380D01*
X19558095Y-16748571D02*
X20129523Y-16748571D01*
X20129523Y-17272380D02*
X20129523Y-16272380D01*
X21129523Y-17272380D02*
X20558095Y-17272380D01*
X20843809Y-17272380D02*
X20843809Y-16272380D01*
X20748571Y-16415238D01*
X20653333Y-16510476D01*
X20558095Y-16558095D01*
%TO.C,H2*%
X220218095Y-14732380D02*
X220218095Y-13732380D01*
X220218095Y-14208571D02*
X220789523Y-14208571D01*
X220789523Y-14732380D02*
X220789523Y-13732380D01*
X221218095Y-13827619D02*
X221265714Y-13780000D01*
X221360952Y-13732380D01*
X221599047Y-13732380D01*
X221694285Y-13780000D01*
X221741904Y-13827619D01*
X221789523Y-13922857D01*
X221789523Y-14018095D01*
X221741904Y-14160952D01*
X221170476Y-14732380D01*
X221789523Y-14732380D01*
%TO.C,H3*%
X17018095Y-162052380D02*
X17018095Y-161052380D01*
X17018095Y-161528571D02*
X17589523Y-161528571D01*
X17589523Y-162052380D02*
X17589523Y-161052380D01*
X17970476Y-161052380D02*
X18589523Y-161052380D01*
X18256190Y-161433333D01*
X18399047Y-161433333D01*
X18494285Y-161480952D01*
X18541904Y-161528571D01*
X18589523Y-161623809D01*
X18589523Y-161861904D01*
X18541904Y-161957142D01*
X18494285Y-162004761D01*
X18399047Y-162052380D01*
X18113333Y-162052380D01*
X18018095Y-162004761D01*
X17970476Y-161957142D01*
%TO.C,H4*%
X220218095Y-162052380D02*
X220218095Y-161052380D01*
X220218095Y-161528571D02*
X220789523Y-161528571D01*
X220789523Y-162052380D02*
X220789523Y-161052380D01*
X221694285Y-161385714D02*
X221694285Y-162052380D01*
X221456190Y-161004761D02*
X221218095Y-161719047D01*
X221837142Y-161719047D01*
%TD*%
M02*
