M48
; DRILL file {KiCad 5.1.8-db9833491~87~ubuntu20.04.1} date Sat Nov 28 16:20:41 2020
; FORMAT={-:-/ absolute / inch / decimal}
; #@! TF.CreationDate,2020-11-28T16:20:41-05:00
; #@! TF.GenerationSoftware,Kicad,Pcbnew,5.1.8-db9833491~87~ubuntu20.04.1
; #@! TF.FileFunction,Plated,1,2,PTH
FMAT,2
INCH
T1C0.0197
T2C0.0276
T3C0.0300
T4C0.0315
T5C0.0335
T6C0.0354
T7C0.0394
T8C0.0591
T9C0.1260
%
G90
G05
T3
X6.8Y-6.11
X6.8Y-6.2
X6.9Y-6.2
X7.0Y-6.2
X7.1Y-6.1
X7.1Y-6.2
X3.3Y-6.35
X3.4Y-6.35
X3.5Y-6.55
X3.6Y-6.35
X3.7Y-6.35
X5.25Y-6.15
X5.25Y-6.55
X5.35Y-6.05
X5.55Y-6.15
X5.75Y-6.05
X5.85Y-6.15
X5.85Y-6.55
X7.5Y-6.15
X7.5Y-6.55
X7.6Y-6.05
X7.8Y-6.15
X8.0Y-6.05
X8.1Y-6.15
X8.1Y-6.55
T4
X8.0Y-0.725
X8.0Y-1.025
X4.15Y-0.775
X4.15Y-1.075
X0.6Y-2.45
X0.9Y-2.45
X2.5Y-6.0122
X2.5Y-6.15
X2.95Y-5.45
X2.95Y-5.75
X7.35Y-5.55
X7.65Y-5.55
X2.95Y-6.0
X2.95Y-6.3
X4.45Y-5.9122
X4.45Y-6.05
X5.15Y-5.8
X5.45Y-5.8
X1.9Y-3.65
X2.2Y-3.65
X7.25Y-0.725
X7.25Y-1.025
X5.75Y-0.725
X5.75Y-1.025
X4.0557Y-5.9085
X4.0557Y-6.2085
X1.0Y-0.775
X1.0Y-1.075
X5.9Y-5.8
X6.2Y-5.8
X2.6Y-0.775
X2.6Y-1.075
X6.55Y-5.55
X6.85Y-5.55
X3.35Y-0.775
X3.35Y-1.075
X4.95Y-0.725
X4.95Y-1.025
X6.5Y-0.725
X6.5Y-1.025
X1.85Y-0.725
X1.85Y-1.025
X1.05Y-2.2
X1.35Y-2.2
X4.0557Y-5.4844
X4.0557Y-5.7844
T5
X0.7Y-2.7516
X0.7Y-2.9484
T6
X0.7Y-2.15
X0.8Y-2.15
T7
X8.3Y-0.625
X8.4Y-0.625
X1.2882Y-4.5459
X1.2882Y-4.6549
X1.2882Y-4.764
X1.2882Y-4.873
X1.2882Y-4.9821
X1.2882Y-5.0911
X1.2882Y-5.2002
X1.2882Y-5.3093
X1.2882Y-5.4183
X1.2882Y-5.5274
X1.2882Y-5.6364
X1.2882Y-5.7455
X1.4Y-4.4913
X1.4Y-4.6004
X1.4Y-4.7094
X1.4Y-4.8185
X1.4Y-4.9276
X1.4Y-5.0366
X1.4Y-5.1457
X1.4Y-5.2547
X1.4Y-5.3638
X1.4Y-5.4728
X1.4Y-5.5819
X1.4Y-5.6909
X1.4Y-5.8
X1.35Y-0.625
X1.45Y-0.625
X6.5Y-2.55
X6.5Y-2.65
X6.5Y-2.75
X6.5Y-2.85
X6.5Y-2.95
X6.5Y-3.05
X6.5Y-3.15
X6.5Y-3.25
X7.5Y-2.55
X7.5Y-2.65
X7.5Y-2.75
X7.5Y-2.85
X7.5Y-2.95
X7.5Y-3.05
X7.5Y-3.15
X7.5Y-3.25
X2.85Y-0.625
X2.95Y-0.625
X8.1Y-2.55
X8.1Y-2.65
X8.1Y-2.75
X8.1Y-2.85
X8.1Y-2.95
X8.1Y-3.05
X8.1Y-3.15
X8.1Y-3.25
X3.2Y-5.9
X3.3Y-5.9
X6.75Y-0.575
X6.85Y-0.575
X7.55Y-0.625
X7.65Y-0.625
X5.25Y-0.587
X5.35Y-0.587
X2.1Y-0.625
X2.2Y-0.625
X3.65Y-0.625
X3.75Y-0.625
X2.5Y-2.0
X2.5Y-2.1
X2.6Y-2.0
X2.6Y-2.1
X2.7Y-2.0
X2.7Y-2.1
X2.8Y-2.0
X2.8Y-2.1
X3.9Y-2.45
X4.0Y-2.45
X4.1Y-2.45
X4.2Y-2.45
X4.3Y-2.45
X4.4Y-2.45
X4.45Y-0.625
X4.55Y-0.625
X5.95Y-0.575
X6.05Y-0.575
T8
X0.9Y-3.5
X1.15Y-3.4
T9
X1.3441Y-4.2185
X1.3441Y-6.0728
T1
G00X0.6094Y-2.7122
M15
G01X0.578Y-2.7122
M16
G05
G00X0.6094Y-2.9878
M15
G01X0.578Y-2.9878
M16
G05
T2
G00X8.2421Y-1.3917
M15
G01X8.2421Y-1.4429
M16
G05
G00X8.3287Y-0.7943
M15
G01X8.3287Y-0.8455
M16
G05
G00X8.4154Y-1.1063
M15
G01X8.4154Y-1.1575
M16
G05
G00X8.4154Y-1.3917
M15
G01X8.4154Y-1.4429
M16
G05
G00X4.3941Y-1.3547
M15
G01X4.3941Y-1.4059
M16
G05
G00X4.4807Y-0.7573
M15
G01X4.4807Y-0.8085
M16
G05
G00X4.5673Y-1.0693
M15
G01X4.5673Y-1.1205
M16
G05
G00X4.5673Y-1.3547
M15
G01X4.5673Y-1.4059
M16
G05
G00X7.5126Y-1.3882
M15
G01X7.5126Y-1.4394
M16
G05
G00X7.5992Y-0.7907
M15
G01X7.5992Y-0.8419
M16
G05
G00X7.6858Y-1.1028
M15
G01X7.6858Y-1.1539
M16
G05
G00X7.6858Y-1.3882
M15
G01X7.6858Y-1.4394
M16
G05
G00X1.3189Y-1.361
M15
G01X1.3189Y-1.4122
M16
G05
G00X1.4055Y-0.7636
M15
G01X1.4055Y-0.8148
M16
G05
G00X1.4921Y-1.0756
M15
G01X1.4921Y-1.1268
M16
G05
G00X1.4921Y-1.361
M15
G01X1.4921Y-1.4122
M16
G05
G00X5.2283Y-1.3512
M15
G01X5.2283Y-1.4024
M16
G05
G00X5.315Y-0.7537
M15
G01X5.315Y-0.8049
M16
G05
G00X5.4016Y-1.0657
M15
G01X5.4016Y-1.1169
M16
G05
G00X5.4016Y-1.3512
M15
G01X5.4016Y-1.4024
M16
G05
G00X5.9634Y-1.3469
M15
G01X5.9634Y-1.398
M16
G05
G00X6.05Y-0.7494
M15
G01X6.05Y-0.8006
M16
G05
G00X6.1366Y-1.0614
M15
G01X6.1366Y-1.1126
M16
G05
G00X6.1366Y-1.3469
M15
G01X6.1366Y-1.398
M16
G05
G00X6.7283Y-1.3382
M15
G01X6.7283Y-1.3894
M16
G05
G00X6.815Y-0.7407
M15
G01X6.815Y-0.7919
M16
G05
G00X6.9016Y-1.0528
M15
G01X6.9016Y-1.1039
M16
G05
G00X6.9016Y-1.3382
M15
G01X6.9016Y-1.3894
M16
G05
G00X3.6079Y-1.374
M15
G01X3.6079Y-1.4252
M16
G05
G00X3.6945Y-0.7766
M15
G01X3.6945Y-0.8278
M16
G05
G00X3.7811Y-1.0886
M15
G01X3.7811Y-1.1398
M16
G05
G00X3.7811Y-1.374
M15
G01X3.7811Y-1.4252
M16
G05
G00X2.8504Y-1.361
M15
G01X2.8504Y-1.4122
M16
G05
G00X2.937Y-0.7636
M15
G01X2.937Y-0.8148
M16
G05
G00X3.0236Y-1.0756
M15
G01X3.0236Y-1.1268
M16
G05
G00X3.0236Y-1.361
M15
G01X3.0236Y-1.4122
M16
G05
G00X2.0846Y-1.361
M15
G01X2.0846Y-1.4122
M16
G05
G00X2.1713Y-0.7636
M15
G01X2.1713Y-0.8148
M16
G05
G00X2.2579Y-1.0756
M15
G01X2.2579Y-1.1268
M16
G05
G00X2.2579Y-1.361
M15
G01X2.2579Y-1.4122
M16
G05
T3
G00X6.6695Y-6.3475
M15
G01X6.6695Y-6.2909
M16
G05
G00X6.9783Y-6.3586
M15
G01X6.9217Y-6.3586
M16
G05
G00X7.2305Y-6.3475
M15
G01X7.2305Y-6.2909
M16
G05
T0
M30
