%TF.GenerationSoftware,KiCad,Pcbnew,5.1.8-db9833491~87~ubuntu20.04.1*%
%TF.CreationDate,2020-11-28T16:20:25-05:00*%
%TF.ProjectId,DevBoard,44657642-6f61-4726-942e-6b696361645f,V01*%
%TF.SameCoordinates,Original*%
%TF.FileFunction,Soldermask,Bot*%
%TF.FilePolarity,Negative*%
%FSLAX46Y46*%
G04 Gerber Fmt 4.6, Leading zero omitted, Abs format (unit mm)*
G04 Created by KiCad (PCBNEW 5.1.8-db9833491~87~ubuntu20.04.1) date 2020-11-28 16:20:25*
%MOMM*%
%LPD*%
G01*
G04 APERTURE LIST*
%ADD10R,1.600000X1.600000*%
%ADD11C,1.600000*%
%ADD12R,1.800000X1.800000*%
%ADD13C,1.800000*%
%ADD14R,1.700000X1.700000*%
%ADD15O,1.700000X1.700000*%
%ADD16O,1.900000X1.100000*%
%ADD17C,1.450000*%
%ADD18C,1.524000*%
%ADD19O,1.500000X2.700000*%
%ADD20O,2.700000X1.500000*%
%ADD21C,4.000000*%
%ADD22C,3.000000*%
%ADD23O,1.600000X1.600000*%
%ADD24C,2.200000*%
%ADD25C,1.700000*%
%ADD26C,2.500000*%
G04 APERTURE END LIST*
D10*
%TO.C,C11*%
X113030000Y-153670000D03*
D11*
X113030000Y-150170000D03*
%TD*%
%TO.C,C12*%
X63500000Y-152710000D03*
D10*
X63500000Y-156210000D03*
%TD*%
D12*
%TO.C,D1*%
X20320000Y-54610000D03*
D13*
X17780000Y-54610000D03*
%TD*%
D14*
%TO.C,J1*%
X99060000Y-62230000D03*
D15*
X101600000Y-62230000D03*
X104140000Y-62230000D03*
X106680000Y-62230000D03*
X109220000Y-62230000D03*
X111760000Y-62230000D03*
%TD*%
D16*
%TO.C,J2*%
X15080000Y-68890000D03*
D17*
X17780000Y-74890000D03*
X17780000Y-69890000D03*
D16*
X15080000Y-75890000D03*
%TD*%
D14*
%TO.C,J3*%
X71120000Y-50800000D03*
D15*
X71120000Y-53340000D03*
X68580000Y-50800000D03*
X68580000Y-53340000D03*
X66040000Y-50800000D03*
X66040000Y-53340000D03*
X63500000Y-50800000D03*
X63500000Y-53340000D03*
%TD*%
D18*
%TO.C,J4*%
X140970000Y-156210000D03*
X135890000Y-153670000D03*
X133350000Y-156210000D03*
X146050000Y-153670000D03*
X148590000Y-156210000D03*
X133350000Y-166370000D03*
X148590000Y-166370000D03*
%TD*%
%TO.C,J5*%
X205740000Y-166370000D03*
X190500000Y-166370000D03*
X205740000Y-156210000D03*
X203200000Y-153670000D03*
X190500000Y-156210000D03*
X193040000Y-153670000D03*
X198120000Y-156210000D03*
%TD*%
%TO.C,J6*%
X180340000Y-154940000D03*
X180340000Y-157480000D03*
X177800000Y-157480000D03*
X172720000Y-157480000D03*
X172720000Y-155194000D03*
X175260000Y-157480000D03*
D19*
X183655000Y-160508000D03*
X169405000Y-160508000D03*
D20*
X176530000Y-161508000D03*
%TD*%
D14*
%TO.C,J7*%
X205740000Y-64770000D03*
D15*
X205740000Y-67310000D03*
X205740000Y-69850000D03*
X205740000Y-72390000D03*
X205740000Y-74930000D03*
X205740000Y-77470000D03*
X205740000Y-80010000D03*
X205740000Y-82550000D03*
%TD*%
%TO.C,J8*%
X190500000Y-82550000D03*
X190500000Y-80010000D03*
X190500000Y-77470000D03*
X190500000Y-74930000D03*
X190500000Y-72390000D03*
X190500000Y-69850000D03*
X190500000Y-67310000D03*
D14*
X190500000Y-64770000D03*
%TD*%
%TO.C,J9*%
X165100000Y-64770000D03*
D15*
X165100000Y-67310000D03*
X165100000Y-69850000D03*
X165100000Y-72390000D03*
X165100000Y-74930000D03*
X165100000Y-77470000D03*
X165100000Y-80010000D03*
X165100000Y-82550000D03*
%TD*%
D10*
%TO.C,J10*%
X35560000Y-147320000D03*
D11*
X35560000Y-144550000D03*
X35560000Y-141780000D03*
X35560000Y-139010000D03*
X35560000Y-136240000D03*
X35560000Y-133470000D03*
X35560000Y-130700000D03*
X35560000Y-127930000D03*
X35560000Y-125160000D03*
X35560000Y-122390000D03*
X35560000Y-119620000D03*
X35560000Y-116850000D03*
X35560000Y-114080000D03*
X32720000Y-145935000D03*
X32720000Y-143165000D03*
X32720000Y-140395000D03*
X32720000Y-137625000D03*
X32720000Y-134855000D03*
X32720000Y-132085000D03*
X32720000Y-129315000D03*
X32720000Y-126545000D03*
X32720000Y-123775000D03*
X32720000Y-121005000D03*
X32720000Y-118235000D03*
X32720000Y-115465000D03*
D21*
X34140000Y-107150000D03*
X34140000Y-154250000D03*
%TD*%
D15*
%TO.C,J11*%
X81280000Y-149860000D03*
D14*
X83820000Y-149860000D03*
%TD*%
D18*
%TO.C,J12*%
X93980000Y-161290000D03*
X91440000Y-161290000D03*
X86360000Y-161290000D03*
X83820000Y-161290000D03*
X88900000Y-166370000D03*
%TD*%
D22*
%TO.C,J13*%
X55150001Y-20045001D03*
X57350001Y-27970001D03*
X57350001Y-35220001D03*
X52950001Y-35220001D03*
%TD*%
D15*
%TO.C,J14*%
X53340000Y-15875000D03*
D14*
X55880000Y-15875000D03*
%TD*%
D22*
%TO.C,J15*%
X211550001Y-20825001D03*
X213750001Y-28750001D03*
X213750001Y-36000001D03*
X209350001Y-36000001D03*
%TD*%
D14*
%TO.C,J16*%
X213360000Y-15875000D03*
D15*
X210820000Y-15875000D03*
%TD*%
D22*
%TO.C,J17*%
X190820001Y-35910001D03*
X195220001Y-35910001D03*
X195220001Y-28660001D03*
X193020001Y-20735001D03*
%TD*%
D14*
%TO.C,J18*%
X194310000Y-15875000D03*
D15*
X191770000Y-15875000D03*
%TD*%
D22*
%TO.C,J19*%
X33500001Y-35220001D03*
X37900001Y-35220001D03*
X37900001Y-27970001D03*
X35700001Y-20045001D03*
%TD*%
D14*
%TO.C,J20*%
X36830000Y-15875000D03*
D15*
X34290000Y-15875000D03*
%TD*%
D22*
%TO.C,J21*%
X151470000Y-34860000D03*
X155870000Y-34860000D03*
X155870000Y-27610000D03*
X153670000Y-19685000D03*
%TD*%
D14*
%TO.C,J22*%
X153670000Y-14605000D03*
D15*
X151130000Y-14605000D03*
%TD*%
D22*
%TO.C,J23*%
X173100001Y-19465001D03*
X175300001Y-27390001D03*
X175300001Y-34640001D03*
X170900001Y-34640001D03*
%TD*%
D14*
%TO.C,J24*%
X173990000Y-14605000D03*
D15*
X171450000Y-14605000D03*
%TD*%
D22*
%TO.C,J25*%
X91640001Y-35550001D03*
X96040001Y-35550001D03*
X96040001Y-28300001D03*
X93840001Y-20375001D03*
%TD*%
D14*
%TO.C,J26*%
X95250000Y-15875000D03*
D15*
X92710000Y-15875000D03*
%TD*%
D22*
%TO.C,J27*%
X74600001Y-20045001D03*
X76800001Y-27970001D03*
X76800001Y-35220001D03*
X72400001Y-35220001D03*
%TD*%
D15*
%TO.C,J28*%
X72390000Y-15875000D03*
D14*
X74930000Y-15875000D03*
%TD*%
D22*
%TO.C,J29*%
X132800001Y-34970001D03*
X137200001Y-34970001D03*
X137200001Y-27720001D03*
X135000001Y-19795001D03*
%TD*%
D15*
%TO.C,J30*%
X133350000Y-14910001D03*
D14*
X135890000Y-14910001D03*
%TD*%
D22*
%TO.C,J31*%
X113810001Y-19885001D03*
X116010001Y-27810001D03*
X116010001Y-35060001D03*
X111610001Y-35060001D03*
%TD*%
D15*
%TO.C,J32*%
X113030000Y-15875000D03*
D14*
X115570000Y-15875000D03*
%TD*%
D11*
%TO.C,R1*%
X48260000Y-92710000D03*
D23*
X55880000Y-92710000D03*
%TD*%
%TO.C,R2*%
X34290000Y-55880000D03*
D11*
X26670000Y-55880000D03*
%TD*%
%TO.C,R3*%
X15240000Y-62230000D03*
D23*
X22860000Y-62230000D03*
%TD*%
D11*
%TO.C,R4*%
X130810000Y-147320000D03*
D23*
X138430000Y-147320000D03*
%TD*%
D11*
%TO.C,R5*%
X149860000Y-147320000D03*
D23*
X157480000Y-147320000D03*
%TD*%
%TO.C,R6*%
X186690000Y-140970000D03*
D11*
X194310000Y-140970000D03*
%TD*%
%TO.C,R7*%
X173990000Y-140970000D03*
D23*
X166370000Y-140970000D03*
%TD*%
%TO.C,R8*%
X103015001Y-139304999D03*
D11*
X103015001Y-146924999D03*
%TD*%
D23*
%TO.C,R9*%
X74930000Y-138430000D03*
D11*
X74930000Y-146050000D03*
%TD*%
%TO.C,R10*%
X103015001Y-157694999D03*
D23*
X103015001Y-150074999D03*
%TD*%
D11*
%TO.C,R11*%
X74930000Y-160020000D03*
D23*
X74930000Y-152400000D03*
%TD*%
%TO.C,R12*%
X46990000Y-26035000D03*
D11*
X46990000Y-18415000D03*
%TD*%
%TO.C,R13*%
X203200000Y-18415000D03*
D23*
X203200000Y-26035000D03*
%TD*%
%TO.C,R14*%
X184150000Y-26035000D03*
D11*
X184150000Y-18415000D03*
%TD*%
%TO.C,R15*%
X25400000Y-19685000D03*
D23*
X25400000Y-27305000D03*
%TD*%
%TO.C,R16*%
X146050000Y-26035000D03*
D11*
X146050000Y-18415000D03*
%TD*%
%TO.C,R17*%
X165100000Y-18415000D03*
D23*
X165100000Y-26035000D03*
%TD*%
%TO.C,R18*%
X85090000Y-19685000D03*
D11*
X85090000Y-27305000D03*
%TD*%
%TO.C,R19*%
X66040000Y-19685000D03*
D23*
X66040000Y-27305000D03*
%TD*%
%TO.C,R20*%
X125730000Y-26035000D03*
D11*
X125730000Y-18415000D03*
%TD*%
D23*
%TO.C,R21*%
X105410000Y-27305000D03*
D11*
X105410000Y-19685000D03*
%TD*%
D24*
%TO.C,SW1*%
X29210000Y-86360000D03*
X22860000Y-88900000D03*
D21*
X26670000Y-91440000D03*
D25*
X21590000Y-91440000D03*
X31750000Y-91440000D03*
%TD*%
D26*
%TO.C,H1*%
X20320000Y-20320000D03*
%TD*%
%TO.C,H2*%
X220980000Y-17780000D03*
%TD*%
%TO.C,H3*%
X17780000Y-165100000D03*
%TD*%
%TO.C,H4*%
X220980000Y-165100000D03*
%TD*%
M02*
